<svg width="230" height="108" viewBox="0 0 230 108" fill="none" xmlns="http://www.w3.org/2000/svg">
<path d="M13.7928 17.5694C13.7928 18.4307 13.6137 19.1197 13.2555 19.8087C12.8972 20.4977 12.5389 20.8422 12.0016 21.3589C11.4642 21.7034 10.9268 22.0479 10.3894 22.3924C9.85203 22.5646 9.13551 22.7369 8.419 22.7369V24.2871H5.37383V22.7369C4.47819 22.5646 3.58255 22.3924 2.86604 22.0479C2.14953 21.7034 1.61215 21.3589 1.25389 20.8422C0.895639 20.3254 0.537383 19.8087 0.358255 19.1197C0.179128 18.4307 0 17.7417 0 16.8804V10.5072C0 9.64598 0.179128 8.95698 0.537383 8.26799C0.716511 7.75124 1.25389 7.2345 1.61215 6.89C2.14953 6.37325 2.68692 6.201 3.40343 5.85651C4.11994 5.51201 4.65732 5.51201 5.37383 5.51201V4.47852H8.59813V5.51201C9.31464 5.51201 9.85203 5.68426 10.5685 5.85651C11.1059 6.02876 11.6433 6.37325 12.1807 6.89C12.7181 7.2345 13.0763 7.92349 13.4346 8.44024C13.7928 9.12923 13.972 9.81823 13.972 10.6795V17.5694H13.7928ZM5.37383 7.92349C4.65732 8.09574 4.11994 8.26799 3.58255 8.61249C3.2243 9.12923 3.04517 9.64598 3.04517 10.335V17.9139C3.04517 18.2584 3.04517 18.6029 3.2243 18.9474C3.40343 19.2919 3.58255 19.4642 3.76168 19.6364C3.94081 19.8087 4.29907 19.9809 4.47819 20.1532C4.83645 20.3254 5.01558 20.3254 5.37383 20.3254V7.92349ZM10.9268 10.335C10.9268 9.64598 10.7477 9.12923 10.2103 8.61249C9.85203 8.26799 9.31464 8.09574 8.59813 7.92349V20.1532C8.77726 20.1532 9.13551 19.9809 9.31464 19.9809C9.6729 19.8087 9.85203 19.6364 10.0312 19.4642C10.2103 19.2919 10.3894 19.1197 10.5685 18.7752C10.7477 18.4307 10.7477 18.2584 10.7477 17.9139V10.335H10.9268Z" fill="#42454A"/>
<path d="M29.7353 19.1197C29.7353 20.8422 29.377 22.2201 28.4814 23.0814C27.5857 23.9426 26.3318 24.4594 24.7197 24.4594C22.9284 24.4594 21.6745 24.1149 20.958 23.2536C20.2415 22.3924 19.7041 21.1866 19.7041 19.6364V9.64598C19.7041 8.95698 19.8832 8.09574 20.0624 7.57899C20.2415 6.89 20.5997 6.37325 20.958 5.85651C21.3163 5.33976 21.8536 4.99526 22.5701 4.82301C23.2867 4.65076 24.0032 4.47852 24.8988 4.47852C25.7944 4.47852 26.6901 4.65076 27.2275 4.82301C27.7648 4.82301 28.3022 5.16751 28.6605 5.68426C29.0187 6.201 29.377 6.71775 29.5561 7.40675C29.7353 8.09574 29.7353 8.78474 29.7353 9.64598V19.1197ZM26.511 9.30148C26.511 8.78474 26.3318 8.26799 26.1527 7.75124C25.9736 7.2345 25.4362 7.06225 24.7197 7.06225C24.3614 7.06225 24.0032 7.06225 23.824 7.2345C23.4658 7.57899 23.2867 7.75124 23.2867 8.09574C23.1075 8.26799 23.1075 8.61249 23.1075 8.95698C23.1075 9.30148 23.1075 9.47373 23.1075 9.81823V19.8087C23.1075 20.3254 23.2867 20.8422 23.4658 21.1867C23.6449 21.5311 24.1823 21.8756 24.8988 21.8756C25.6153 21.8756 25.9736 21.7034 26.3318 21.1867C26.6901 20.8422 26.6901 20.3254 26.6901 19.6364V9.30148H26.511Z" fill="#42454A"/>
<path d="M42.632 24.2871V15.6747H38.8704V24.2871H35.8252V4.47852H39.0495V12.7465H42.8112V4.47852H46.0355V24.2871H42.632Z" fill="#42454A"/>
<path d="M53.559 24.2872V28.0767H50.8721V21.7035L52.126 21.5313C52.6633 21.0145 53.0216 20.3255 53.2007 19.6365C53.3799 18.9475 53.559 17.914 53.559 16.7083L53.9172 4.65088H63.2319V21.7035H64.4858V28.249H61.7989V24.4595H53.559V24.2872ZM56.425 16.536C56.425 17.7418 56.2459 18.603 56.2459 19.4643C56.0668 20.3255 55.8876 21.0145 55.5294 21.5313H60.0076V7.40686H56.7833L56.425 16.536Z" fill="#42454A"/>
<path d="M83.8321 4.30615C84.7278 4.30615 85.4443 4.4784 85.9817 4.65065C86.519 4.8229 87.0564 5.1674 87.5938 5.51189C87.9521 5.85639 88.3103 6.37314 88.4894 6.88988C88.6686 7.40663 88.8477 8.09563 88.8477 8.78462L85.8025 9.47362C85.8025 8.78462 85.6234 8.09563 85.4443 7.75113C85.086 7.23438 84.7278 7.06213 84.0113 7.06213C83.653 7.06213 83.2947 7.06213 83.1156 7.23438C82.9365 7.40663 82.7574 7.57888 82.5782 7.75113C82.3991 7.92338 82.3991 8.26787 82.3991 8.44012C82.3991 8.78462 82.3991 8.95687 82.3991 9.30137V19.2918C82.3991 19.464 82.3991 19.6363 82.3991 19.9808C82.3991 20.153 82.5782 20.4975 82.5782 20.6698C82.7574 20.842 82.9365 21.0143 83.1156 21.1865C83.2947 21.3588 83.653 21.3588 84.0113 21.3588C85.2651 21.3588 85.8025 20.4975 85.8025 18.9473C86.3399 19.1195 86.8773 19.1195 87.4147 19.1195C87.9521 19.1195 88.4894 19.2918 89.0268 19.2918C89.0268 20.842 88.4894 22.0478 87.7729 22.909C86.8773 23.7703 85.8025 24.287 84.1904 24.287C82.3991 24.287 81.1452 23.9425 80.4287 23.0813C79.5331 22.22 79.1748 21.0143 79.1748 19.464V9.64586C79.1748 8.95687 79.1748 8.26787 79.3539 7.57888C79.5331 6.88988 79.8913 6.37314 80.2496 5.85639C80.6078 5.33965 81.1452 4.99515 81.8617 4.65065C82.0408 4.4784 82.7574 4.30615 83.8321 4.30615Z" fill="#42454A"/>
<path d="M103.894 19.1197C103.894 20.8422 103.536 22.2201 102.641 23.0814C101.745 23.9426 100.491 24.4594 98.8789 24.4594C97.0876 24.4594 95.8337 24.1149 95.1172 23.2536C94.4007 22.3924 93.8633 21.1866 93.8633 19.6364V9.64598C93.8633 8.95698 94.0424 8.09574 94.2215 7.57899C94.4007 6.89 94.7589 6.37325 95.1172 5.85651C95.4754 5.33976 96.0128 4.99526 96.7293 4.82301C97.4458 4.65076 98.1623 4.47852 99.058 4.47852C99.9536 4.47852 100.849 4.65076 101.387 4.82301C102.103 4.99526 102.461 5.33976 102.999 5.85651C103.357 6.37325 103.715 6.89 103.894 7.57899C103.894 7.92349 103.894 8.78474 103.894 9.47373V19.1197ZM100.67 9.30148C100.67 8.78474 100.491 8.26799 100.312 7.75124C100.133 7.2345 99.5954 7.06225 98.8789 7.06225C98.5206 7.06225 98.1623 7.06225 97.9832 7.2345C97.8041 7.40675 97.625 7.57899 97.4458 7.75124C97.2667 7.92349 97.2667 8.26799 97.0876 8.61249C97.0876 8.95698 97.0876 9.12923 97.0876 9.47373V19.4642C97.0876 19.9809 97.2667 20.4977 97.4458 20.8422C97.8041 21.1866 98.1623 21.5311 98.8789 21.5311C99.5954 21.5311 99.9536 21.3589 100.312 20.8422C100.67 20.4977 100.67 19.9809 100.67 19.2919V9.30148Z" fill="#42454A"/>
<path d="M111.417 24.2872V28.0767H108.73V21.7035L109.984 21.5313C110.522 21.0145 110.88 20.3255 111.059 19.6365C111.238 18.9475 111.417 17.914 111.417 16.7083L111.776 4.65088H121.09V21.7035H122.344V28.249H119.657V24.4595H111.417V24.2872ZM114.283 16.536C114.283 17.7418 114.104 18.603 114.104 19.4643C113.925 20.3255 113.746 21.0145 113.388 21.5313H117.866V7.40686H114.642L114.283 16.536Z" fill="#42454A"/>
<path d="M127.539 24.2871V4.47852H136.675V7.40675H130.763V12.7465H135.958V15.6747H130.763V21.3589H136.675V24.2871H127.539Z" fill="#42454A"/>
<path d="M149.392 11.8852L145.093 24.2871H142.048V4.47847H145.093V17.0526L149.392 4.47847H152.437V24.2871H149.213L149.392 11.8852ZM145.451 0C145.451 0.172249 145.451 0.344498 145.63 0.688995C145.81 0.861244 145.81 1.03349 145.989 1.37799C146.168 1.55024 146.347 1.72249 146.526 1.89474C146.705 2.06699 147.063 2.06699 147.243 2.06699C147.601 2.06699 147.78 2.06699 147.959 1.89474C148.138 1.72249 148.317 1.55024 148.496 1.37799C148.676 1.20574 148.855 1.03349 148.855 0.688995C148.855 0.516746 149.034 0.344498 149.034 0H151.362C151.362 0.344498 151.183 0.861244 151.004 1.37799C151.183 1.72249 150.825 2.23923 150.467 2.58373C150.109 2.92823 149.75 3.27273 149.213 3.61722C148.676 3.78947 148.138 3.96172 147.422 3.96172C146.705 3.96172 145.989 3.78947 145.451 3.61722C144.914 3.44498 144.556 3.10048 144.197 2.58373C143.839 2.23923 143.66 1.72249 143.481 1.37799C143.302 0.861244 143.123 0.344498 143.123 0H145.451Z" fill="#42454A"/>
<path d="M163.544 4.30615C164.44 4.30615 165.156 4.4784 165.694 4.65065C166.231 4.8229 166.768 5.1674 167.306 5.51189C167.664 5.85639 168.022 6.37314 168.201 6.88988C168.38 7.40663 168.56 8.09563 168.56 8.78462L165.514 9.47362C165.514 8.78462 165.335 8.09563 165.156 7.75113C164.798 7.23438 164.44 7.06213 163.723 7.06213C163.365 7.06213 163.007 7.06213 162.828 7.23438C162.648 7.40663 162.469 7.57888 162.29 7.75113C162.111 7.92338 162.111 8.26787 162.111 8.44012C162.111 8.78462 162.111 8.95687 162.111 9.30137V19.2918C162.111 19.464 162.111 19.6363 162.111 19.9808C162.111 20.153 162.29 20.4975 162.29 20.6698C162.469 20.842 162.648 21.0143 162.828 21.1865C163.007 21.3588 163.365 21.3588 163.723 21.3588C164.977 21.3588 165.514 20.4975 165.514 18.9473C166.052 19.1195 166.589 19.1195 167.127 19.1195C167.664 19.1195 168.201 19.2918 168.739 19.2918C168.739 20.842 168.201 22.0478 167.485 22.909C166.589 23.7703 165.514 24.287 163.902 24.287C162.111 24.287 160.857 23.9425 160.141 23.0813C159.245 22.22 158.887 21.0143 158.887 19.464V9.64586C158.887 8.95687 158.887 8.26787 159.066 7.57888C159.245 6.88988 159.603 6.37314 159.961 5.85639C160.32 5.33965 160.857 4.99515 161.574 4.65065C161.753 4.4784 162.648 4.30615 163.544 4.30615Z" fill="#42454A"/>
<path d="M178.949 7.40675V24.2871H175.725V7.40675H172.321V4.47852H182.173V7.40675H178.949Z" fill="#42454A"/>
<path d="M194.712 13.9522C195.608 14.2967 196.324 14.8134 196.504 15.5024C196.862 16.3637 197.041 17.2249 197.041 18.2584C197.041 20.3254 196.504 21.8756 195.608 22.7369C194.712 23.7704 193.279 24.1149 191.309 24.1149H187.01V4.47852H191.488C193.279 4.47852 194.712 4.99526 195.429 5.85651C196.324 6.71775 196.683 8.09574 196.683 9.81823C196.683 10.6795 196.504 11.5407 196.145 12.2297C196.145 12.9187 195.429 13.4355 194.712 13.9522ZM193.817 9.99048C193.817 9.12923 193.637 8.44024 193.279 8.09574C192.921 7.75124 192.204 7.57899 191.488 7.57899H190.413V12.7465H191.488C192.384 12.7465 192.921 12.5742 193.279 12.0575C193.637 11.3685 193.817 10.6795 193.817 9.99048ZM193.996 17.9139C193.996 17.0527 193.817 16.3637 193.458 15.8469C193.1 15.3302 192.563 15.1579 191.667 15.1579H190.413V21.3589H191.667C192.204 21.3589 192.563 21.1866 192.921 21.0144C193.279 20.8422 193.458 20.6699 193.637 20.3254C193.817 19.9809 193.996 19.6364 193.996 19.2919C193.996 18.9474 193.996 18.4307 193.996 17.9139Z" fill="#42454A"/>
<path d="M210.475 11.8852L206.176 24.2871H203.131V4.47852H206.176V17.0527H206.355L210.654 4.47852H213.699V24.2871H210.475V11.8852Z" fill="#42454A"/>
<path d="M219.073 24.2872L220.148 18.0863C220.327 17.3973 220.506 16.8805 220.865 16.3638C221.223 15.8471 221.581 15.3303 222.118 15.1581C221.223 14.8136 220.506 14.1246 220.148 13.4356C219.79 12.7466 219.611 11.7131 219.611 10.6796C219.611 8.78485 220.148 7.23461 221.044 6.20112C221.939 5.16763 223.372 4.65088 225.164 4.65088H229.821V24.4595H226.597V15.8471H225.701C225.164 15.8471 224.626 16.0193 224.089 16.536C223.551 16.8805 223.372 17.7418 223.014 18.7753L222.118 24.2872H219.073ZM225.343 7.40686C224.447 7.40686 223.731 7.75136 223.372 8.2681C223.014 8.78485 222.835 9.47385 222.835 10.5073C222.835 11.5408 223.014 12.0576 223.551 12.5743C224.089 12.9188 224.626 13.0911 225.343 13.0911H226.597V7.40686H225.343Z" fill="#42454A"/>
<path d="M9.67262 40.6507L4.29879 55.9808H0.537109V31.5215H4.47792V47.0239H4.65705L10.0309 31.5215H13.9717V55.9808H9.85175L9.67262 40.6507Z" fill="#42454A"/>
<path d="M33.1387 55.9808V45.3014H28.6605V55.9808H24.7197V31.5215H28.6605V41.6842H33.3179V31.5215H37.2587V55.9808H33.1387Z" fill="#42454A"/>
<path d="M56.7837 55.9808V45.3014H52.1264V55.9808H48.1855V31.5215H52.1264V41.6842H56.7837V31.5215H60.7245V55.9808H56.7837Z" fill="#42454A"/>
<path d="M84.0112 49.7797C84.0112 51.8467 83.4738 53.5692 82.5782 54.6027C81.5034 55.6362 80.0704 56.1529 77.7417 56.1529C75.5922 56.1529 73.98 55.6362 73.0844 54.6027C72.1887 53.5692 71.6514 52.019 71.6514 50.1242V37.8946C71.6514 36.8611 71.8305 35.9998 72.0096 35.3108C72.1888 34.4496 72.547 33.7606 73.0844 33.2439C73.6218 32.7271 74.1592 32.2104 75.0548 31.8659C75.7713 31.5214 76.8461 31.3491 77.9208 31.3491C79.1747 31.3491 80.0704 31.5214 80.966 31.8659C81.6825 32.2104 82.399 32.5549 82.9364 33.0716C83.4738 33.5884 83.8321 34.2773 84.0112 35.1386C84.1903 35.9998 84.3694 36.8611 84.3694 37.8946V49.7797H84.0112ZM80.0704 37.5501C80.0704 36.8611 79.8912 36.3443 79.533 35.6553C79.1747 35.1386 78.6374 34.7941 77.7417 34.7941C77.2043 34.7941 76.8461 34.9663 76.6669 35.1386C76.3087 35.3108 76.1296 35.6553 75.9504 35.8276C75.7713 36.1721 75.5922 36.5166 75.5922 36.8611C75.5922 37.2056 75.413 37.5501 75.413 37.8946V50.2965C75.413 50.9855 75.5922 51.5022 75.9504 52.019C76.3087 52.5357 76.8461 52.708 77.7417 52.708C78.6374 52.708 79.1747 52.3635 79.533 51.8467C79.8912 51.33 80.0704 50.641 80.0704 49.952V37.5501Z" fill="#42454A"/>
<path d="M104.252 43.2344C105.327 43.5789 106.223 44.2679 106.581 45.3014C106.939 46.3349 107.297 47.3684 107.297 48.7464C107.297 51.3301 106.76 53.2248 105.506 54.4306C104.431 55.6363 102.64 56.1531 100.311 56.1531H94.9375V31.5215H100.49C102.819 31.5215 104.431 32.0382 105.327 33.244C106.402 34.4497 106.939 36 106.939 38.2392C106.939 39.4449 106.76 40.3062 106.402 41.1674C106.043 42.0287 105.327 42.7177 104.252 43.0622V43.2344ZM103.177 38.2392C103.177 37.0334 102.998 36.3445 102.461 35.8277C101.923 35.311 101.207 35.1387 100.132 35.1387H98.8783V41.3397H100.132C101.207 41.3397 101.923 40.9952 102.461 40.4784C102.998 40.1339 103.177 39.2727 103.177 38.2392ZM103.357 48.2296C103.357 47.0239 103.177 46.1626 102.64 45.6459C102.282 45.1291 101.386 44.7846 100.311 44.7846H98.8783V52.3636H100.49C101.207 52.3636 101.565 52.1913 102.103 52.0191C102.461 51.8468 102.819 51.5023 102.998 51.1579C103.177 50.8134 103.357 50.2966 103.357 49.7799C103.357 49.4354 103.357 48.9186 103.357 48.2296Z" fill="#42454A"/>
<path d="M127.359 55.9808L126.285 50.8134H121.627C121.448 51.6746 121.269 52.5358 121.09 53.3971C120.911 54.2583 120.732 55.1196 120.553 55.9808H116.433C117.328 51.8468 118.224 47.7129 118.94 43.7512C119.836 39.6172 120.732 35.6555 121.448 31.5215H125.926L131.121 55.9808H127.359ZM123.777 37.2057C123.598 38.9282 123.239 40.6507 123.06 42.2009C122.702 43.9234 122.523 45.6459 122.165 47.3684H125.747L124.135 37.2057H123.777Z" fill="#42454A"/>
<path d="M153.333 31.5215V52.5358H154.945V60.8038H151.542V56.1531H140.794V31.5215H144.735V52.5358H149.213V31.5215H153.333Z" fill="#42454A"/>
<path d="M173.575 40.6507L168.201 55.9808H164.439V31.5215H168.38V47.0239L173.754 31.5215H177.695V55.9808H173.754L173.575 40.6507Z" fill="#42454A"/>
<path d="M187.547 55.9808L188.98 48.2296C189.159 47.3684 189.338 46.6794 189.876 45.9904C190.234 45.3014 190.771 44.7846 191.488 44.4401C190.234 43.9234 189.517 43.2344 188.98 42.3732C188.622 41.3397 188.263 40.3062 188.263 38.9282C188.263 36.5167 188.801 34.622 190.055 33.4162C191.309 32.2105 192.921 31.5215 195.07 31.5215H200.981V55.9808H197.041V45.4736H195.966C195.249 45.4736 194.712 45.6459 193.995 46.1626C193.458 46.6794 192.921 47.5406 192.742 48.9186L191.488 55.8086H187.547V55.9808ZM195.428 35.1387C194.175 35.1387 193.458 35.4832 192.921 36.1722C192.383 36.8612 192.204 37.7224 192.204 38.9282C192.204 40.1339 192.562 40.9952 193.1 41.3397C193.637 41.8564 194.533 42.0287 195.428 42.0287H197.041V35.1387H195.428Z" fill="#42454A"/>
<path d="M219.432 50.641L217.64 46.1625L216.028 41.8563H215.849V55.9807H211.908V31.5214H215.849L218.715 38.4113L220.685 43.751H220.865L223.014 38.2391L225.701 31.3491H229.463V55.8085H225.522V41.684H225.343L223.731 45.9903L221.939 50.4687H219.432V50.641Z" fill="#42454A"/>
<path d="M229.641 63.3877C174.291 115.407 63.5901 106.45 23.4655 63.3877H0.537109C30.8097 94.2202 74.3377 105.933 110.88 107.483C114.641 107.656 118.403 107.656 121.986 107.656C145.631 107.311 171.962 102.316 194.891 90.603C207.967 84.0576 219.969 75.1006 229.641 63.3877Z" fill="#EA2227"/>
<path d="M229.641 63.3877C229.641 63.5599 229.641 63.5599 229.641 63.3877C228.745 64.0767 227.85 64.5934 227.133 65.1102C166.767 103.866 82.9353 96.2872 46.9306 63.3877H23.4648C63.5895 106.45 174.29 115.579 229.641 63.3877Z" fill="#25A8E0"/>
<path d="M216.386 68.8997C188.979 79.0623 163.185 83.5408 140.614 83.7131C109.088 83.8853 84.1892 75.7896 70.9338 63.3877H51.0506H46.9307C82.7562 95.9427 165.692 103.694 225.879 65.7992C226.238 65.6269 226.775 65.2824 227.133 64.9379C228.029 64.4212 228.745 63.9044 229.641 63.3877C225.163 65.4547 220.685 67.1772 216.386 68.8997Z" fill="white"/>
<path d="M70.9342 63.3875C84.0105 75.4449 108.372 83.5406 139.361 83.5406C139.719 83.5406 140.257 83.5406 140.615 83.5406C163.185 83.3683 188.979 78.8899 216.386 68.7272C220.685 67.0047 225.163 65.2822 229.641 63.3875C219.968 74.9281 207.967 83.8851 194.711 90.6028C171.783 102.316 145.451 107.311 121.806 107.655C120.911 107.655 120.015 107.655 119.12 107.655C116.433 107.655 113.567 107.655 110.701 107.483C74.1585 105.933 30.8096 94.22 0.357839 63.3875H23.1071H46.5728H50.6927H70.9342ZM70.9342 63.2152H51.051H46.9311H23.4653H0.536966C0.357839 63.2152 0.357839 63.2152 0.178711 63.3875C0.178711 63.5597 0.178711 63.5597 0.178711 63.732C14.5089 78.0286 32.2426 89.2248 53.2005 96.8037C70.755 103.177 90.8174 106.966 110.701 107.828C113.567 108 116.253 108 119.12 108C120.015 108 120.911 108 121.806 108C134.345 107.828 146.705 106.45 158.528 103.694C171.604 100.765 183.785 96.4592 194.711 90.9473C208.683 83.7128 220.506 74.5836 229.641 63.5597C229.641 63.5597 229.641 63.5597 229.641 63.3875C229.641 63.3875 229.641 63.3875 229.641 63.2152C229.641 63.2152 229.641 63.2152 229.641 63.043C229.641 63.043 229.641 63.043 229.462 63.043H229.283C224.984 64.9377 220.506 66.8324 216.028 68.3827C190.592 77.8564 164.439 83.0238 140.436 83.1961C140.077 83.1961 139.54 83.1961 139.182 83.1961C109.626 83.1961 84.9061 75.7894 71.1133 63.043C71.1133 63.2152 71.1133 63.2152 70.9342 63.2152Z" fill="#CDCCCB"/>
</svg>
