<svg width="77" height="84" viewBox="0 0 77 84" fill="none" xmlns="http://www.w3.org/2000/svg">
<path d="M2.84817 46.2178C1.84798 45.7491 0.657197 46.1799 0.188495 47.1801C-0.280208 48.1803 0.150654 49.3711 1.15085 49.8398L2.84817 46.2178ZM75.003 80.0303L2.84817 46.2178L1.15085 49.8398L73.3056 83.6523L75.003 80.0303Z" fill="white"/>
<path d="M13.1793 45.6904C12.1782 45.2236 10.9882 45.6567 10.5214 46.6578C10.0546 47.6588 10.4877 48.8488 11.4888 49.3156L13.1793 45.6904ZM76.8599 75.3851L13.1793 45.6904L11.4888 49.3156L75.1694 79.0104L76.8599 75.3851Z" fill="white"/>
<path d="M0.844662 46.3963C-0.056966 47.0343 -0.270618 48.2825 0.367458 49.1841C1.00553 50.0858 2.25371 50.2994 3.15534 49.6614L0.844662 46.3963ZM3.15534 49.6614L68.1958 3.6327L65.8852 0.367612L0.844662 46.3963L3.15534 49.6614Z" fill="white"/>
<path d="M11.4281 45.6028C10.5279 46.2428 10.3168 47.4914 10.9568 48.3917C11.5968 49.292 12.8454 49.503 13.7457 48.863L11.4281 45.6028ZM13.7457 48.863L71.0142 8.15286L68.6966 4.89265L11.4281 45.6028L13.7457 48.863Z" fill="white"/>
</svg>
