<svg width="78" height="84" viewBox="0 0 78 84" fill="none" xmlns="http://www.w3.org/2000/svg">
<path d="M74.1665 37.6235C75.1667 38.0922 76.3575 37.6614 76.8262 36.6612C77.2949 35.661 76.864 34.4702 75.8638 34.0015L74.1665 37.6235ZM2.01169 3.81101L74.1665 37.6235L75.8638 34.0015L3.70901 0.188985L2.01169 3.81101Z" fill="white"/>
<path d="M63.8354 38.1509C64.8365 38.6177 66.0264 38.1846 66.4932 37.1835C66.96 36.1825 66.5269 34.9925 65.5259 34.5257L63.8354 38.1509ZM0.154764 8.45617L63.8354 38.1509L65.5259 34.5257L1.84524 4.83094L0.154764 8.45617Z" fill="white"/>
<path d="M76.17 37.445C77.0716 36.807 77.2853 35.5588 76.6472 34.6572C76.0091 33.7555 74.7609 33.5419 73.8593 34.18L76.17 37.445ZM73.8593 34.18L8.81882 80.2086L11.1295 83.4737L76.17 37.445L73.8593 34.18Z" fill="white"/>
<path d="M65.5865 38.2385C66.4868 37.5985 66.6978 36.3499 66.0578 35.4496C65.4179 34.5493 64.1692 34.3383 63.269 34.9783L65.5865 38.2385ZM63.269 34.9783L6.00044 75.6885L8.318 78.9487L65.5865 38.2385L63.269 34.9783Z" fill="white"/>
</svg>
