<svg width="1627" height="173" viewBox="0 0 1627 173" fill="none" xmlns="http://www.w3.org/2000/svg">
<path d="M77.5 14.5L223 36L771 95L818.5 101.5L1071.5 26.5L1330.5 88.5L1612 155" stroke="#272B3A" stroke-width="15"/>
<path d="M1613.5 165L1342 98.25L1070.5 31.5L1060 34.6948L812.5 110L16.5 18.5L11.5 14.5L16.5 8.5L168 18.5L298.5 34L294.5 45.5L156.5 26.5L287 18.5L200 13H187.5L372 18.5H1612H1615L1613.5 33.5L1450 29.5H1092.5M1074.5 29.5H298.5L282.5 26.5L313.5 40H1026.5L352 52L342.5 47.5L985.5 53L991 49.5L931.5 65.5L447.5 62.5L438.5 57L564 73.5L895.5 77L910 73.5L645 87H867L872.5 84.5L757 98H825.5L1074.5 29.5ZM1074.5 29.5H1092.5M1092.5 29.5L1161 40L1613.5 45.5V59.5L1179.5 51.5L1170.5 47L1245 65.5L1613.5 75L1612 67.5L1546.5 65.5L1279 75L1519 84L1613.5 88.5V106.5L1482.5 94L1606 98.25L1430 88.5H1330.5L1322 84H1317L1482.5 103.5L1613.5 122L1609 113.5L1612 140L1513 122L1600.5 127.5L1394 103.5L1371 98.25L1531 132.5L1613.5 150" stroke="#272B3A" stroke-width="15"/>
<path d="M1601.5 129H1604H1600L1604 131.5" stroke="#272B3A" stroke-width="15"/>
<line x1="812.413" y1="94.2897" x2="1070.41" y2="15.0881" stroke="#6AEDF0" stroke-width="4"/>
<line x1="812.413" y1="107.29" x2="1070.41" y2="28.0881" stroke="#6AEDF0" stroke-width="4"/>
<line x1="1069.45" y1="15.1635" x2="1613.5" y2="147.95" stroke="#6AEDF0" stroke-width="4"/>
<line x1="1069.47" y1="28.057" x2="1613.53" y2="160.844" stroke="#6AEDF0" stroke-width="4"/>
<line x1="13.2285" y1="15.0131" x2="813.229" y2="107.013" stroke="#6AEDF0" stroke-width="4"/>
<line x1="13.2285" y1="2.0131" x2="813.229" y2="94.0131" stroke="#6AEDF0" stroke-width="4"/>
</svg>
