<svg width="616" height="476" viewBox="0 0 616 476" fill="none" xmlns="http://www.w3.org/2000/svg">
<path d="M404.608 394.496C404.608 396.053 404.117 397.291 403.136 398.208C402.155 399.104 400.843 399.68 399.2 399.936V400.064C401.12 400.32 402.581 400.917 403.584 401.856C404.587 402.795 405.088 404.021 405.088 405.536C405.088 406.88 404.747 408.064 404.064 409.088C403.381 410.091 402.357 410.88 400.992 411.456C399.627 412.032 397.92 412.32 395.872 412.32C394.635 412.32 393.451 412.224 392.32 412.032C391.211 411.861 390.176 411.541 389.216 411.072V408.448C389.877 408.768 390.581 409.045 391.328 409.28C392.096 409.493 392.864 409.664 393.632 409.792C394.4 409.899 395.136 409.952 395.84 409.952C397.888 409.952 399.435 409.568 400.48 408.8C401.547 408.032 402.08 406.944 402.08 405.536C402.08 404.085 401.461 403.029 400.224 402.368C398.987 401.707 397.259 401.376 395.04 401.376H391.776V398.976H394.88C396.395 398.976 397.643 398.805 398.624 398.464C399.627 398.123 400.373 397.643 400.864 397.024C401.376 396.384 401.632 395.637 401.632 394.784C401.632 393.632 401.205 392.747 400.352 392.128C399.499 391.509 398.389 391.2 397.024 391.2C395.595 391.2 394.4 391.381 393.44 391.744C392.501 392.107 391.584 392.576 390.688 393.152L389.312 391.2C389.909 390.752 390.592 390.357 391.36 390.016C392.149 389.653 393.024 389.365 393.984 389.152C394.944 388.939 395.968 388.832 397.056 388.832C398.699 388.832 400.075 389.077 401.184 389.568C402.315 390.059 403.168 390.731 403.744 391.584C404.32 392.416 404.608 393.387 404.608 394.496ZM416.029 394.56C418.119 394.56 419.666 395.019 420.669 395.936C421.671 396.853 422.173 398.315 422.173 400.32V412H420.125L419.581 409.568H419.453C418.962 410.187 418.45 410.709 417.917 411.136C417.405 411.541 416.807 411.84 416.125 412.032C415.463 412.224 414.653 412.32 413.693 412.32C412.669 412.32 411.741 412.139 410.909 411.776C410.098 411.413 409.458 410.859 408.989 410.112C408.519 409.344 408.285 408.384 408.285 407.232C408.285 405.525 408.957 404.213 410.301 403.296C411.645 402.357 413.714 401.845 416.509 401.76L419.421 401.664V400.64C419.421 399.211 419.111 398.219 418.493 397.664C417.874 397.109 416.999 396.832 415.869 396.832C414.973 396.832 414.119 396.971 413.309 397.248C412.498 397.504 411.741 397.803 411.036 398.144L410.173 396.032C410.919 395.627 411.805 395.285 412.829 395.008C413.853 394.709 414.919 394.56 416.029 394.56ZM416.861 403.712C414.727 403.797 413.245 404.139 412.413 404.736C411.602 405.333 411.197 406.176 411.197 407.264C411.197 408.224 411.485 408.928 412.061 409.376C412.658 409.824 413.415 410.048 414.333 410.048C415.783 410.048 416.989 409.653 417.949 408.864C418.909 408.053 419.389 406.816 419.389 405.152V403.616L416.861 403.712ZM450.702 394.848V409.664H453.198V417.92H450.382V412H427.47V394.848H430.286V409.632H437.678V394.848H440.494V409.632H447.918V394.848H450.702ZM459.126 405.312C459.126 405.504 459.115 405.781 459.094 406.144C459.094 406.485 459.083 406.859 459.062 407.264C459.041 407.648 459.019 408.021 458.998 408.384C458.977 408.725 458.955 409.003 458.934 409.216L468.118 394.848H471.574V412H468.95V401.888C468.95 401.547 468.95 401.099 468.95 400.544C468.971 399.989 468.993 399.445 469.014 398.912C469.035 398.357 469.057 397.941 469.078 397.664L459.958 412H456.47V394.848H459.126V405.312ZM500.265 394.848V409.664H502.761V417.92H499.945V412H477.033V394.848H479.849V409.632H487.241V394.848H490.057V409.632H497.481V394.848H500.265ZM512.529 394.56C514.619 394.56 516.166 395.019 517.169 395.936C518.171 396.853 518.673 398.315 518.673 400.32V412H516.625L516.081 409.568H515.953C515.462 410.187 514.95 410.709 514.417 411.136C513.905 411.541 513.307 411.84 512.625 412.032C511.963 412.224 511.153 412.32 510.193 412.32C509.169 412.32 508.241 412.139 507.409 411.776C506.598 411.413 505.958 410.859 505.489 410.112C505.019 409.344 504.785 408.384 504.785 407.232C504.785 405.525 505.457 404.213 506.801 403.296C508.145 402.357 510.214 401.845 513.009 401.76L515.921 401.664V400.64C515.921 399.211 515.611 398.219 514.993 397.664C514.374 397.109 513.499 396.832 512.369 396.832C511.473 396.832 510.619 396.971 509.809 397.248C508.998 397.504 508.241 397.803 507.536 398.144L506.673 396.032C507.419 395.627 508.305 395.285 509.329 395.008C510.353 394.709 511.419 394.56 512.529 394.56ZM513.361 403.712C511.227 403.797 509.745 404.139 508.913 404.736C508.102 405.333 507.697 406.176 507.697 407.264C507.697 408.224 507.985 408.928 508.561 409.376C509.158 409.824 509.915 410.048 510.833 410.048C512.283 410.048 513.489 409.653 514.449 408.864C515.409 408.053 515.889 406.816 515.889 405.152V403.616L513.361 403.712ZM530.594 394.528C532.066 394.528 533.325 394.848 534.37 395.488C535.437 396.128 536.247 397.035 536.802 398.208C537.378 399.36 537.666 400.715 537.666 402.272V403.968H525.922C525.965 405.909 526.455 407.392 527.394 408.416C528.354 409.419 529.687 409.92 531.394 409.92C532.482 409.92 533.442 409.824 534.274 409.632C535.127 409.419 536.002 409.12 536.898 408.736V411.2C536.023 411.584 535.159 411.861 534.306 412.032C533.453 412.224 532.439 412.32 531.266 412.32C529.645 412.32 528.205 411.989 526.946 411.328C525.709 410.667 524.738 409.685 524.034 408.384C523.351 407.061 523.01 405.451 523.01 403.552C523.01 401.675 523.319 400.064 523.938 398.72C524.578 397.376 525.463 396.341 526.594 395.616C527.746 394.891 529.079 394.528 530.594 394.528ZM530.562 396.832C529.218 396.832 528.151 397.269 527.362 398.144C526.594 398.997 526.135 400.192 525.986 401.728H534.722C534.722 400.747 534.573 399.893 534.274 399.168C533.975 398.443 533.517 397.877 532.898 397.472C532.301 397.045 531.522 396.832 530.562 396.832ZM560.433 394.848V412H557.905V401.056C557.905 400.608 557.915 400.139 557.937 399.648C557.979 399.157 558.022 398.677 558.065 398.208H557.969L552.369 412H550.001L544.561 398.208H544.465C544.507 398.677 544.529 399.157 544.529 399.648C544.55 400.139 544.561 400.64 544.561 401.152V412H542.033V394.848H545.777L551.185 408.64L556.689 394.848H560.433ZM572.404 394.56C574.494 394.56 576.041 395.019 577.044 395.936C578.046 396.853 578.548 398.315 578.548 400.32V412H576.5L575.956 409.568H575.828C575.337 410.187 574.825 410.709 574.292 411.136C573.78 411.541 573.182 411.84 572.5 412.032C571.838 412.224 571.028 412.32 570.068 412.32C569.044 412.32 568.116 412.139 567.284 411.776C566.473 411.413 565.833 410.859 565.364 410.112C564.894 409.344 564.66 408.384 564.66 407.232C564.66 405.525 565.332 404.213 566.676 403.296C568.02 402.357 570.089 401.845 572.884 401.76L575.796 401.664V400.64C575.796 399.211 575.486 398.219 574.868 397.664C574.249 397.109 573.374 396.832 572.244 396.832C571.348 396.832 570.494 396.971 569.684 397.248C568.873 397.504 568.116 397.803 567.411 398.144L566.548 396.032C567.294 395.627 568.18 395.285 569.204 395.008C570.228 394.709 571.294 394.56 572.404 394.56ZM573.236 403.712C571.102 403.797 569.62 404.139 568.788 404.736C567.977 405.333 567.572 406.176 567.572 407.264C567.572 408.224 567.86 408.928 568.436 409.376C569.033 409.824 569.79 410.048 570.708 410.048C572.158 410.048 573.364 409.653 574.324 408.864C575.284 408.053 575.764 406.816 575.764 405.152V403.616L573.236 403.712ZM584.901 412H581.637L586.533 404.8C585.872 404.629 585.232 404.363 584.613 404C583.994 403.616 583.493 403.093 583.109 402.432C582.725 401.749 582.533 400.907 582.533 399.904C582.533 398.261 583.088 397.013 584.197 396.16C585.306 395.285 586.778 394.848 588.613 394.848H596.293V412H593.477V405.184H589.317L584.901 412ZM585.253 399.936C585.253 400.917 585.616 401.653 586.341 402.144C587.088 402.613 588.122 402.848 589.445 402.848H593.477V397.184H588.901C587.6 397.184 586.661 397.44 586.085 397.952C585.53 398.464 585.253 399.125 585.253 399.936ZM447.919 438.848V456H445.103V441.248H436.239V456H433.423V438.848H447.919ZM468.304 447.392C468.304 448.821 468.112 450.091 467.728 451.2C467.365 452.288 466.832 453.216 466.128 453.984C465.445 454.752 464.603 455.339 463.6 455.744C462.619 456.128 461.52 456.32 460.304 456.32C459.173 456.32 458.128 456.128 457.168 455.744C456.208 455.339 455.376 454.752 454.672 453.984C453.968 453.216 453.413 452.288 453.008 451.2C452.624 450.091 452.432 448.821 452.432 447.392C452.432 445.493 452.752 443.893 453.392 442.592C454.032 441.269 454.949 440.267 456.144 439.584C457.339 438.88 458.757 438.528 460.4 438.528C461.957 438.528 463.323 438.88 464.496 439.584C465.691 440.267 466.619 441.269 467.28 442.592C467.963 443.893 468.304 445.493 468.304 447.392ZM455.344 447.392C455.344 448.736 455.515 449.909 455.856 450.912C456.219 451.893 456.773 452.651 457.52 453.184C458.267 453.717 459.216 453.984 460.368 453.984C461.52 453.984 462.469 453.717 463.216 453.184C463.963 452.651 464.507 451.893 464.848 450.912C465.211 449.909 465.392 448.736 465.392 447.392C465.392 446.027 465.211 444.864 464.848 443.904C464.485 442.944 463.931 442.208 463.184 441.696C462.459 441.163 461.509 440.896 460.336 440.896C458.587 440.896 457.317 441.472 456.528 442.624C455.739 443.776 455.344 445.365 455.344 447.392ZM485.503 438.848V453.632H487.999V461.952H485.279V456H473.343V461.952H470.655V453.632H472.031C473.012 452.267 473.823 450.784 474.463 449.184C475.124 447.563 475.615 445.877 475.935 444.128C476.276 442.357 476.458 440.597 476.479 438.848H485.503ZM478.975 441.056C478.89 442.507 478.666 444.011 478.303 445.568C477.94 447.104 477.471 448.576 476.895 449.984C476.34 451.392 475.69 452.608 474.943 453.632H482.783V441.056H478.975ZM498.241 456.32C496.726 456.32 495.371 456.011 494.177 455.392C493.003 454.773 492.075 453.813 491.393 452.512C490.731 451.211 490.401 449.547 490.401 447.52C490.401 445.408 490.753 443.691 491.457 442.368C492.161 441.045 493.11 440.075 494.305 439.456C495.521 438.837 496.897 438.528 498.433 438.528C499.307 438.528 500.15 438.624 500.961 438.816C501.771 438.987 502.433 439.2 502.945 439.456L502.081 441.792C501.569 441.6 500.971 441.419 500.289 441.248C499.606 441.077 498.966 440.992 498.369 440.992C497.217 440.992 496.267 441.237 495.521 441.728C494.774 442.219 494.219 442.944 493.857 443.904C493.494 444.864 493.313 446.059 493.313 447.488C493.313 448.853 493.494 450.016 493.857 450.976C494.219 451.936 494.763 452.661 495.489 453.152C496.214 453.643 497.121 453.888 498.209 453.888C499.147 453.888 499.969 453.792 500.673 453.6C501.398 453.408 502.059 453.173 502.657 452.896V455.392C502.081 455.691 501.441 455.915 500.737 456.064C500.054 456.235 499.222 456.32 498.241 456.32ZM513.36 438.528C514.832 438.528 516.09 438.848 517.136 439.488C518.202 440.128 519.013 441.035 519.568 442.208C520.144 443.36 520.432 444.715 520.432 446.272V447.968H508.688C508.73 449.909 509.221 451.392 510.16 452.416C511.12 453.419 512.453 453.92 514.16 453.92C515.248 453.92 516.208 453.824 517.04 453.632C517.893 453.419 518.768 453.12 519.664 452.736V455.2C518.789 455.584 517.925 455.861 517.072 456.032C516.218 456.224 515.205 456.32 514.032 456.32C512.41 456.32 510.97 455.989 509.712 455.328C508.474 454.667 507.504 453.685 506.8 452.384C506.117 451.061 505.776 449.451 505.776 447.552C505.776 445.675 506.085 444.064 506.704 442.72C507.344 441.376 508.229 440.341 509.36 439.616C510.512 438.891 511.845 438.528 513.36 438.528ZM513.328 440.832C511.984 440.832 510.917 441.269 510.128 442.144C509.36 442.997 508.901 444.192 508.752 445.728H517.488C517.488 444.747 517.338 443.893 517.04 443.168C516.741 442.443 516.282 441.877 515.664 441.472C515.066 441.045 514.288 440.832 513.328 440.832ZM536.638 441.216H531.038V456H528.254V441.216H522.718V438.848H536.638V441.216ZM547.921 445.888C549.414 445.888 550.652 446.069 551.633 446.432C552.614 446.795 553.35 447.339 553.841 448.064C554.353 448.768 554.609 449.664 554.609 450.752C554.609 451.819 554.364 452.747 553.873 453.536C553.404 454.325 552.668 454.933 551.665 455.36C550.662 455.787 549.372 456 547.793 456H540.017V438.848H542.833V445.888H547.921ZM551.793 450.912C551.793 449.867 551.42 449.163 550.673 448.8C549.948 448.416 548.924 448.224 547.601 448.224H542.833V453.728H547.665C548.86 453.728 549.841 453.515 550.609 453.088C551.398 452.661 551.793 451.936 551.793 450.912Z" fill="black"/>
<path d="M546 367H595.651H600.627L602.28 367.189C604.067 367.393 605.781 368.021 607.278 369.019L607.484 369.156C608.81 370.04 609.912 371.22 610.704 372.603L610.751 372.686C611.109 373.31 611.394 373.973 611.601 374.661V374.661C611.865 375.543 612 376.459 612 377.379V463.379C612 464.111 611.893 464.838 611.683 465.539V465.539C611.422 466.405 611.008 467.216 610.459 467.935L610.049 468.472C609.034 469.801 607.692 470.846 606.154 471.505V471.505C605.388 471.834 604.583 472.062 603.758 472.185L601.463 472.527L595.776 473H471.253H391.639L385.952 472.527L383.337 472.178C382.452 472.06 381.592 471.796 380.793 471.397V471.397C379.616 470.808 378.6 469.94 377.835 468.868L377.524 468.434C376.849 467.489 376.383 466.411 376.157 465.271V465.271C376.052 464.747 376 464.213 376 463.677V437.036V377.13C376 376.375 376.11 375.624 376.328 374.9V374.9C376.581 374.056 376.977 373.262 377.498 372.551L378.234 371.546C378.743 370.851 379.334 370.221 379.996 369.67V369.67C381.312 368.573 382.875 367.812 384.551 367.453L385.26 367.301C386.193 367.101 387.143 367 388.097 367H391.639H514" stroke="black" stroke-width="5"/>
<path d="M495.04 243.544C495.04 245.4 494.784 247.085 494.272 248.6C493.781 250.115 493.045 251.395 492.064 252.44C491.083 253.485 489.856 254.253 488.384 254.744L493.856 260.44H489.728L485.312 255.288C485.184 255.288 485.045 255.288 484.896 255.288C484.768 255.309 484.64 255.32 484.512 255.32C482.72 255.32 481.163 255.043 479.84 254.488C478.517 253.912 477.419 253.112 476.544 252.088C475.669 251.043 475.019 249.795 474.592 248.344C474.165 246.893 473.952 245.283 473.952 243.512C473.952 241.165 474.336 239.117 475.104 237.368C475.872 235.619 477.035 234.253 478.592 233.272C480.171 232.291 482.155 231.8 484.544 231.8C486.827 231.8 488.747 232.291 490.304 233.272C491.861 234.232 493.035 235.597 493.824 237.368C494.635 239.117 495.04 241.176 495.04 243.544ZM476.992 243.544C476.992 245.464 477.259 247.117 477.792 248.504C478.325 249.891 479.147 250.957 480.256 251.704C481.387 252.451 482.805 252.824 484.512 252.824C486.24 252.824 487.648 252.451 488.736 251.704C489.845 250.957 490.667 249.891 491.2 248.504C491.733 247.117 492 245.464 492 243.544C492 240.664 491.403 238.413 490.208 236.792C489.013 235.149 487.125 234.328 484.544 234.328C482.816 234.328 481.387 234.701 480.256 235.448C479.147 236.173 478.325 237.229 477.792 238.616C477.259 239.981 476.992 241.624 476.992 243.544ZM515.888 232.152L507.728 255H504.848L496.688 232.152H499.696L504.848 246.808C505.082 247.427 505.285 248.024 505.456 248.6C505.626 249.176 505.776 249.731 505.904 250.264C506.053 250.776 506.181 251.288 506.288 251.8C506.394 251.288 506.512 250.765 506.64 250.232C506.789 249.699 506.949 249.144 507.12 248.568C507.312 247.992 507.514 247.384 507.728 246.744L512.847 232.152H515.888ZM524.466 237.56C526.557 237.56 528.103 238.019 529.106 238.936C530.109 239.853 530.61 241.315 530.61 243.32V255H528.562L528.018 252.568H527.89C527.399 253.187 526.887 253.709 526.354 254.136C525.842 254.541 525.245 254.84 524.562 255.032C523.901 255.224 523.09 255.32 522.13 255.32C521.106 255.32 520.178 255.139 519.346 254.776C518.535 254.413 517.895 253.859 517.426 253.112C516.957 252.344 516.722 251.384 516.722 250.232C516.722 248.525 517.394 247.213 518.738 246.296C520.082 245.357 522.151 244.845 524.946 244.76L527.858 244.664V243.64C527.858 242.211 527.549 241.219 526.93 240.664C526.311 240.109 525.437 239.832 524.306 239.832C523.41 239.832 522.557 239.971 521.746 240.248C520.935 240.504 520.178 240.803 519.474 241.144L518.61 239.032C519.357 238.627 520.242 238.285 521.266 238.008C522.29 237.709 523.357 237.56 524.466 237.56ZM525.298 246.712C523.165 246.797 521.682 247.139 520.85 247.736C520.039 248.333 519.634 249.176 519.634 250.264C519.634 251.224 519.922 251.928 520.498 252.376C521.095 252.824 521.853 253.048 522.77 253.048C524.221 253.048 525.426 252.653 526.386 251.864C527.346 251.053 527.826 249.816 527.826 248.152V246.616L525.298 246.712ZM541.988 255.32C539.854 255.32 538.148 254.584 536.868 253.112C535.588 251.619 534.948 249.4 534.948 246.456C534.948 243.512 535.588 241.293 536.868 239.8C538.169 238.285 539.886 237.528 542.02 237.528C542.916 237.528 543.694 237.645 544.356 237.88C545.017 238.093 545.593 238.392 546.084 238.776C546.574 239.16 546.99 239.587 547.332 240.056H547.524C547.502 239.779 547.46 239.373 547.396 238.84C547.353 238.285 547.332 237.848 547.332 237.528V230.68H550.148V255H547.876L547.46 252.696H547.332C546.99 253.187 546.574 253.635 546.084 254.04C545.593 254.424 545.006 254.733 544.324 254.968C543.662 255.203 542.884 255.32 541.988 255.32ZM542.436 252.984C544.249 252.984 545.518 252.493 546.244 251.512C546.99 250.509 547.364 249.005 547.364 247V246.488C547.364 244.355 547.012 242.723 546.308 241.592C545.604 240.44 544.302 239.864 542.404 239.864C540.889 239.864 539.748 240.472 538.98 241.688C538.233 242.883 537.86 244.493 537.86 246.52C537.86 248.568 538.233 250.157 538.98 251.288C539.748 252.419 540.9 252.984 542.436 252.984ZM577.828 255H562.724V252.664L568.708 246.616C569.86 245.464 570.83 244.44 571.62 243.544C572.409 242.648 573.006 241.773 573.412 240.92C573.817 240.045 574.02 239.096 574.02 238.072C574.02 236.813 573.646 235.864 572.9 235.224C572.153 234.563 571.182 234.232 569.988 234.232C568.878 234.232 567.897 234.424 567.044 234.808C566.212 235.192 565.358 235.725 564.484 236.408L562.98 234.52C563.577 234.008 564.228 233.549 564.932 233.144C565.657 232.739 566.436 232.419 567.268 232.184C568.121 231.949 569.028 231.832 569.988 231.832C571.417 231.832 572.644 232.077 573.668 232.568C574.692 233.059 575.481 233.763 576.036 234.68C576.612 235.576 576.9 236.653 576.9 237.912C576.9 238.808 576.761 239.661 576.484 240.472C576.206 241.261 575.812 242.04 575.3 242.808C574.788 243.576 574.169 244.355 573.444 245.144C572.718 245.933 571.918 246.755 571.044 247.608L566.276 252.312V252.44H577.828V255Z" fill="black"/>
<path d="M546 296H599.588L602.11 295.702C603.092 295.585 604.058 295.356 604.988 295.019L606.418 294.5C607.132 294.241 607.785 293.838 608.336 293.316V293.316C608.776 292.9 609.144 292.415 609.427 291.879L609.854 291.072C610.282 290.26 610.596 289.393 610.786 288.494V288.494C610.928 287.821 611 287.135 611 286.448V199.878C611 199.288 610.939 198.7 610.817 198.123V198.123C610.607 197.132 610.222 196.187 609.68 195.332L609 194.259L608.956 194.204C607.996 192.992 606.793 191.994 605.424 191.275V191.275C603.832 190.437 602.06 190 600.261 190H599.5H546M445 224.071V200.251C445 199.413 445.087 198.578 445.26 197.758L445.28 197.666C445.426 196.974 445.639 196.297 445.914 195.645L446.132 195.13C446.376 194.552 446.698 194.01 447.087 193.518V193.518C447.689 192.758 448.443 192.133 449.301 191.682L450.076 191.275C451.668 190.437 453.44 190 455.239 190H456H514M445 260.036V287.482V287.92C445 289.186 445.309 290.434 445.901 291.553L446.077 291.887C446.357 292.417 446.722 292.898 447.157 293.309V293.309C447.713 293.835 448.373 294.239 449.094 294.495L450.614 295.035C451.535 295.362 452.49 295.585 453.46 295.7L456 296H514" stroke="black" stroke-width="5"/>
<path d="M503.318 27.36C502.102 27.36 501.003 27.5733 500.022 28C499.041 28.4053 498.209 29.0133 497.526 29.824C496.843 30.6133 496.321 31.584 495.958 32.736C495.595 33.8667 495.414 35.1467 495.414 36.576C495.414 38.4533 495.702 40.0853 496.278 41.472C496.875 42.8587 497.75 43.9253 498.902 44.672C500.075 45.4187 501.537 45.792 503.286 45.792C504.289 45.792 505.238 45.7067 506.134 45.536C507.03 45.3653 507.905 45.152 508.758 44.896V47.392C507.905 47.712 507.019 47.9467 506.102 48.096C505.206 48.2453 504.129 48.32 502.87 48.32C500.545 48.32 498.603 47.84 497.046 46.88C495.489 45.92 494.315 44.5547 493.526 42.784C492.758 41.0133 492.374 38.9333 492.374 36.544C492.374 34.816 492.609 33.2373 493.078 31.808C493.569 30.3787 494.273 29.1413 495.19 28.096C496.129 27.0507 497.281 26.2507 498.646 25.696C500.011 25.12 501.579 24.832 503.35 24.832C504.523 24.832 505.654 24.9493 506.742 25.184C507.83 25.4187 508.801 25.7493 509.654 26.176L508.502 28.608C507.798 28.288 507.009 28 506.134 27.744C505.281 27.488 504.342 27.36 503.318 27.36ZM530.417 48H526.961L516.625 36.416V48H513.745V25.152H516.625V36.224L526.705 25.152H529.969L520.049 36.256L530.417 48ZM539.574 25.152C542.561 25.152 544.737 25.7387 546.102 26.912C547.467 28.0853 548.15 29.7387 548.15 31.872C548.15 32.8107 547.99 33.7173 547.67 34.592C547.371 35.4453 546.87 36.2133 546.166 36.896C545.462 37.5787 544.523 38.1227 543.35 38.528C542.177 38.912 540.737 39.104 539.03 39.104H536.406V48H533.526V25.152H539.574ZM539.318 27.616H536.406V36.64H538.71C540.161 36.64 541.366 36.4907 542.326 36.192C543.286 35.872 544.001 35.3707 544.47 34.688C544.939 34.0053 545.174 33.1093 545.174 32C545.174 30.528 544.705 29.4293 543.766 28.704C542.827 27.9787 541.345 27.616 539.318 27.616ZM569.573 48H566.117L555.781 36.416V48H552.901V25.152H555.781V36.224L565.861 25.152H569.125L559.205 36.256L569.573 48ZM485.889 83.36L491.265 76.928L493.281 78.08L488.801 83.552L493.281 89.024L491.265 90.208L485.889 83.776V83.36ZM492.225 83.36L497.665 76.928L499.649 78.08L495.169 83.552L499.649 89.024L497.665 90.208L492.225 83.776V83.36ZM503.995 92V69.152H517.563V71.68H506.875V78.816H510.267C512.549 78.816 514.32 79.104 515.579 79.68C516.837 80.2347 517.712 81.0027 518.203 81.984C518.693 82.944 518.939 84.0533 518.939 85.312C518.939 86.6987 518.661 87.8933 518.107 88.896C517.573 89.8987 516.699 90.6667 515.483 91.2C514.267 91.7333 512.667 92 510.683 92H503.995ZM510.395 89.536C512.443 89.536 513.883 89.1947 514.715 88.512C515.547 87.808 515.963 86.7413 515.963 85.312C515.963 84.3307 515.76 83.552 515.355 82.976C514.971 82.3787 514.331 81.952 513.435 81.696C512.56 81.44 511.387 81.312 509.915 81.312H506.875V89.536H510.395ZM538.21 83.392C538.21 84.8213 538.018 86.0907 537.634 87.2C537.271 88.288 536.738 89.216 536.034 89.984C535.351 90.752 534.509 91.3387 533.506 91.744C532.525 92.128 531.426 92.32 530.21 92.32C529.079 92.32 528.034 92.128 527.074 91.744C526.114 91.3387 525.282 90.752 524.578 89.984C523.874 89.216 523.319 88.288 522.914 87.2C522.53 86.0907 522.338 84.8213 522.338 83.392C522.338 81.4933 522.658 79.8933 523.298 78.592C523.938 77.2693 524.855 76.2667 526.05 75.584C527.245 74.88 528.663 74.528 530.306 74.528C531.863 74.528 533.229 74.88 534.402 75.584C535.597 76.2667 536.525 77.2693 537.186 78.592C537.869 79.8933 538.21 81.4933 538.21 83.392ZM525.25 83.392C525.25 84.736 525.421 85.9093 525.762 86.912C526.125 87.8933 526.679 88.6507 527.426 89.184C528.173 89.7173 529.122 89.984 530.274 89.984C531.426 89.984 532.375 89.7173 533.122 89.184C533.869 88.6507 534.413 87.8933 534.754 86.912C535.117 85.9093 535.298 84.736 535.298 83.392C535.298 82.0267 535.117 80.864 534.754 79.904C534.391 78.944 533.837 78.208 533.09 77.696C532.365 77.1627 531.415 76.896 530.242 76.896C528.493 76.896 527.223 77.472 526.434 78.624C525.645 79.776 525.25 81.3653 525.25 83.392ZM541.777 81.696C541.777 79.2 542.022 77.0773 542.513 75.328C543.025 73.5573 543.804 72.1493 544.849 71.104C545.916 70.0373 547.281 69.3227 548.945 68.96C550.332 68.6613 551.686 68.3947 553.009 68.16C554.332 67.9253 555.569 67.712 556.721 67.52L557.201 69.984C556.646 70.0693 556.028 70.176 555.345 70.304C554.662 70.4107 553.969 70.528 553.265 70.656C552.561 70.7627 551.878 70.88 551.217 71.008C550.577 71.1147 550.012 71.2213 549.521 71.328C548.817 71.4773 548.188 71.7333 547.633 72.096C547.078 72.4373 546.598 72.9067 546.193 73.504C545.809 74.1013 545.5 74.8373 545.265 75.712C545.03 76.5867 544.892 77.6213 544.849 78.816H545.041C545.34 78.4107 545.745 77.9947 546.257 77.568C546.79 77.1413 547.42 76.7787 548.145 76.48C548.892 76.1813 549.734 76.032 550.673 76.032C552.166 76.032 553.404 76.3627 554.385 77.024C555.388 77.664 556.134 78.56 556.625 79.712C557.137 80.864 557.393 82.208 557.393 83.744C557.393 85.6427 557.062 87.232 556.401 88.512C555.74 89.792 554.822 90.752 553.649 91.392C552.476 92.0107 551.11 92.32 549.553 92.32C548.38 92.32 547.313 92.096 546.353 91.648C545.393 91.1787 544.572 90.496 543.889 89.6C543.206 88.704 542.684 87.5947 542.321 86.272C541.958 84.9493 541.777 83.424 541.777 81.696ZM549.777 89.984C550.716 89.984 551.526 89.792 552.209 89.408C552.913 89.024 553.457 88.3947 553.841 87.52C554.225 86.6453 554.417 85.4827 554.417 84.032C554.417 82.2827 554.086 80.9067 553.425 79.904C552.785 78.88 551.718 78.368 550.225 78.368C549.286 78.368 548.433 78.5813 547.665 79.008C546.897 79.4133 546.257 79.8827 545.745 80.416C545.233 80.9493 544.87 81.3973 544.657 81.76C544.657 82.8053 544.732 83.8187 544.881 84.8C545.03 85.7813 545.286 86.6667 545.649 87.456C546.033 88.224 546.556 88.8427 547.217 89.312C547.9 89.76 548.753 89.984 549.777 89.984ZM574.117 83.776L568.677 90.208L566.693 89.024L571.173 83.552L566.693 78.08L568.677 76.928L574.117 83.36V83.776ZM567.749 83.776L562.341 90.208L560.357 89.024L564.837 83.552L560.357 78.08L562.341 76.928L567.749 83.36V83.776Z" fill="black"/>
<path d="M546 115H601.588L604.077 114.689C605.081 114.563 606.066 114.317 607.01 113.955L608.376 113.431C609.117 113.147 609.79 112.71 610.351 112.149V112.149C610.781 111.719 611.139 111.223 611.411 110.679L611.845 109.811C612.28 108.941 612.597 108.017 612.787 107.063V107.063C612.929 106.356 613 105.637 613 104.916V13.4273C613 12.8106 612.939 12.1954 612.818 11.5907V11.5907C612.608 10.5381 612.218 9.52948 611.665 8.609L611 7.5L610.894 7.35913C609.975 6.13349 608.808 5.11544 607.469 4.37141V4.37141C605.85 3.47199 604.028 3 602.176 3H601.5H458H457.324C455.472 3 453.65 3.47199 452.031 4.37141L451.349 4.75066C450.46 5.24467 449.685 5.92061 449.074 6.73439V6.73439C448.693 7.24259 448.38 7.79875 448.145 8.38856L447.91 8.97564C447.637 9.65711 447.428 10.3621 447.284 11.0818L447.259 11.2028C447.087 12.0655 447 12.9431 447 13.8229V39M447 77V106V106.512C447 107.819 447.304 109.109 447.889 110.278L448.094 110.687C448.363 111.226 448.717 111.717 449.142 112.142V112.142C449.708 112.708 450.387 113.145 451.136 113.426L452.591 113.972C453.527 114.323 454.501 114.563 455.493 114.687L458 115H514" stroke="black" stroke-width="5"/>
<path d="M272.632 45.152C274.531 45.152 276.12 45.3333 277.4 45.696C278.701 46.0587 279.672 46.656 280.312 47.488C280.973 48.32 281.304 49.4293 281.304 50.816C281.304 51.712 281.133 52.512 280.792 53.216C280.472 53.8987 279.981 54.4747 279.32 54.944C278.68 55.392 277.891 55.7013 276.952 55.872V56.032C277.912 56.1813 278.776 56.4587 279.544 56.864C280.333 57.2693 280.952 57.8453 281.4 58.592C281.848 59.3387 282.072 60.3093 282.072 61.504C282.072 62.8907 281.752 64.0747 281.112 65.056C280.472 66.016 279.555 66.752 278.36 67.264C277.187 67.7547 275.779 68 274.136 68H266.104V45.152H272.632ZM273.208 54.88C275.171 54.88 276.515 54.5707 277.24 53.952C277.965 53.312 278.328 52.3733 278.328 51.136C278.328 49.8773 277.88 48.9813 276.984 48.448C276.109 47.8933 274.701 47.616 272.76 47.616H268.984V54.88H273.208ZM268.984 57.28V65.568H273.592C275.619 65.568 277.027 65.1733 277.816 64.384C278.605 63.5947 279 62.56 279 61.28C279 60.4693 278.819 59.7653 278.456 59.168C278.115 58.5707 277.528 58.112 276.696 57.792C275.885 57.4507 274.776 57.28 273.368 57.28H268.984ZM306.853 56.544C306.853 58.3147 306.629 59.9253 306.181 61.376C305.733 62.8053 305.061 64.0427 304.165 65.088C303.29 66.1333 302.191 66.9333 300.869 67.488C299.567 68.0427 298.053 68.32 296.325 68.32C294.533 68.32 292.975 68.0427 291.653 67.488C290.33 66.912 289.231 66.112 288.357 65.088C287.482 64.0427 286.831 62.7947 286.405 61.344C285.978 59.8933 285.765 58.2827 285.765 56.512C285.765 54.1653 286.149 52.1173 286.917 50.368C287.685 48.6187 288.847 47.2533 290.405 46.272C291.983 45.2907 293.967 44.8 296.357 44.8C298.639 44.8 300.559 45.2907 302.117 46.272C303.674 47.232 304.847 48.5973 305.637 50.368C306.447 52.1173 306.853 54.176 306.853 56.544ZM288.805 56.544C288.805 58.464 289.071 60.1173 289.605 61.504C290.138 62.8907 290.959 63.9573 292.069 64.704C293.199 65.4507 294.618 65.824 296.325 65.824C298.053 65.824 299.461 65.4507 300.549 64.704C301.658 63.9573 302.479 62.8907 303.013 61.504C303.546 60.1173 303.812 58.464 303.812 56.544C303.812 53.664 303.215 51.4133 302.021 49.792C300.826 48.1493 298.938 47.328 296.357 47.328C294.629 47.328 293.199 47.7013 292.069 48.448C290.959 49.1733 290.138 50.2293 289.605 51.616C289.071 52.9813 288.805 54.624 288.805 56.544ZM327.74 68H324.86V47.68H317.628C317.478 48.8533 317.318 50.0907 317.148 51.392C316.977 52.672 316.796 53.9413 316.604 55.2C316.433 56.4587 316.262 57.6427 316.092 58.752C315.921 59.8613 315.75 60.832 315.58 61.664C315.302 63.0933 314.961 64.3093 314.556 65.312C314.15 66.3147 313.606 67.072 312.924 67.584C312.262 68.096 311.388 68.352 310.299 68.352C309.937 68.352 309.564 68.3093 309.18 68.224C308.817 68.16 308.497 68.0747 308.22 67.968V65.568C308.454 65.6747 308.721 65.7707 309.02 65.856C309.318 65.92 309.638 65.952 309.98 65.952C310.62 65.952 311.121 65.696 311.484 65.184C311.868 64.6507 312.166 64 312.38 63.232C312.593 62.4427 312.774 61.664 312.924 60.896C313.052 60.2773 313.201 59.456 313.372 58.432C313.542 57.3867 313.724 56.1707 313.916 54.784C314.129 53.3973 314.342 51.8933 314.556 50.272C314.79 48.6293 315.014 46.9227 315.228 45.152H327.74V68ZM343.74 47.36C342.524 47.36 341.425 47.5733 340.444 48C339.462 48.4053 338.63 49.0133 337.948 49.824C337.265 50.6133 336.742 51.584 336.38 52.736C336.017 53.8667 335.836 55.1467 335.836 56.576C335.836 58.4533 336.124 60.0853 336.7 61.472C337.297 62.8587 338.172 63.9253 339.324 64.672C340.497 65.4187 341.958 65.792 343.708 65.792C344.71 65.792 345.66 65.7067 346.556 65.536C347.452 65.3653 348.326 65.152 349.18 64.896V67.392C348.326 67.712 347.441 67.9467 346.524 68.096C345.628 68.2453 344.55 68.32 343.292 68.32C340.966 68.32 339.025 67.84 337.468 66.88C335.91 65.92 334.737 64.5547 333.948 62.784C333.18 61.0133 332.796 58.9333 332.796 56.544C332.796 54.816 333.03 53.2373 333.5 51.808C333.99 50.3787 334.694 49.1413 335.612 48.096C336.55 47.0507 337.702 46.2507 339.068 45.696C340.433 45.12 342.001 44.832 343.772 44.832C344.945 44.832 346.076 44.9493 347.164 45.184C348.252 45.4187 349.222 45.7493 350.076 46.176L348.924 48.608C348.22 48.288 347.43 48 346.556 47.744C345.702 47.488 344.764 47.36 343.74 47.36Z" fill="black"/>
<path d="M390 39V22.422C390 21.7297 389.914 21.0401 389.743 20.3691L389.736 20.3424C389.583 19.7411 389.362 19.1594 389.076 18.6088V18.6088C388.694 17.874 388.202 17.202 387.617 16.6165L387.558 16.5579C386.536 15.5357 385.273 14.7868 383.886 14.38L383.818 14.3599C383.004 14.1212 382.16 14 381.311 14H379.133H237.361H234.705C234.172 14 233.639 14.0455 233.114 14.136L232.88 14.1763C231.643 14.3894 230.469 14.879 229.448 15.6086L229.219 15.7722C228.096 16.5745 227.221 17.6766 226.694 18.9526V18.9526C226.561 19.2755 226.451 19.6074 226.365 19.9459L226.315 20.1421C226.106 20.9638 226 21.8084 226 22.6562V39M390 77V94.0089V94.2101C390 95.347 389.676 96.4605 389.066 97.4199L388.994 97.5329C388.679 98.0282 388.282 98.4666 387.821 98.8294V98.8294C387.302 99.237 386.711 99.5422 386.079 99.7288L384.389 100.227C383.521 100.483 382.631 100.656 381.731 100.745L379.133 101H323.807H237.274L234.692 100.746C233.781 100.657 232.881 100.479 232.005 100.214L230.406 99.7324C229.779 99.5434 229.194 99.2388 228.679 98.8342V98.8342C228.214 98.4682 227.814 98.026 227.496 97.5263L227.097 96.8995C226.698 96.2711 226.4 95.5831 226.217 94.8614V94.8614C226.073 94.2953 226 93.7135 226 93.1293V77" stroke="black" stroke-width="5"/>
<path d="M202.174 44.0699L191 44L179 57.8687L191 72H202M202.174 44.0699L190.913 57.9276L202 72M202.174 44.0699L214 44L202.5 58L214 72H202" stroke="black" stroke-width="4"/>
<path d="M414.826 71.9301L426 72L438 58.1313L426 44H415M414.826 71.9301L426.087 58.0724L415 44M414.826 71.9301L403 72L414.5 58L403 44L415 44" stroke="black" stroke-width="4"/>
<path d="M58.8179 28.36C57.6019 28.36 56.5032 28.5733 55.5219 29C54.5405 29.4053 53.7085 30.0133 53.0259 30.824C52.3432 31.6133 51.8205 32.584 51.4579 33.736C51.0952 34.8667 50.9139 36.1467 50.9139 37.576C50.9139 39.4533 51.2019 41.0853 51.7779 42.472C52.3752 43.8587 53.2499 44.9253 54.4019 45.672C55.5752 46.4187 57.0365 46.792 58.7859 46.792C59.7885 46.792 60.7379 46.7067 61.6339 46.536C62.5299 46.3653 63.4045 46.152 64.2579 45.896V48.392C63.4045 48.712 62.5192 48.9467 61.6019 49.096C60.7059 49.2453 59.6285 49.32 58.3699 49.32C56.0445 49.32 54.1032 48.84 52.5459 47.88C50.9885 46.92 49.8152 45.5547 49.0259 43.784C48.2579 42.0133 47.8739 39.9333 47.8739 37.544C47.8739 35.816 48.1085 34.2373 48.5779 32.808C49.0685 31.3787 49.7725 30.1413 50.6899 29.096C51.6285 28.0507 52.7805 27.2507 54.1459 26.696C55.5112 26.12 57.0792 25.832 58.8499 25.832C60.0232 25.832 61.1539 25.9493 62.2419 26.184C63.3299 26.4187 64.3005 26.7493 65.1539 27.176L64.0019 29.608C63.2979 29.288 62.5085 29 61.6339 28.744C60.7805 28.488 59.8419 28.36 58.8179 28.36ZM85.9166 49H82.4606L72.1246 37.416V49H69.2446V26.152H72.1246V37.224L82.2046 26.152H85.4686L75.5486 37.256L85.9166 49ZM95.0739 26.152C98.0605 26.152 100.237 26.7387 101.602 27.912C102.967 29.0853 103.65 30.7387 103.65 32.872C103.65 33.8107 103.49 34.7173 103.17 35.592C102.871 36.4453 102.37 37.2133 101.666 37.896C100.962 38.5787 100.023 39.1227 98.8499 39.528C97.6765 39.912 96.2365 40.104 94.5299 40.104H91.9059V49H89.0259V26.152H95.0739ZM94.8179 28.616H91.9059V37.64H94.2099C95.6605 37.64 96.8659 37.4907 97.8259 37.192C98.7859 36.872 99.5005 36.3707 99.9699 35.688C100.439 35.0053 100.674 34.1093 100.674 33C100.674 31.528 100.205 30.4293 99.2659 29.704C98.3272 28.9787 96.8445 28.616 94.8179 28.616ZM125.073 49H121.617L111.281 37.416V49H108.401V26.152H111.281V37.224L121.361 26.152H124.625L114.705 37.256L125.073 49ZM24.0925 84.36L29.4685 77.928L31.4845 79.08L27.0045 84.552L31.4845 90.024L29.4685 91.208L24.0925 84.776V84.36ZM30.4285 84.36L35.8685 77.928L37.8525 79.08L33.3725 84.552L37.8525 90.024L35.8685 91.208L30.4285 84.776V84.36ZM56.5338 93L53.7818 85.928H44.7258L42.0058 93H39.0938L48.0218 70.056H50.6138L59.5098 93H56.5338ZM50.3578 76.456C50.2938 76.2853 50.1871 75.976 50.0378 75.528C49.8884 75.08 49.7391 74.6213 49.5898 74.152C49.4618 73.6613 49.3551 73.288 49.2698 73.032C49.1631 73.4587 49.0458 73.896 48.9178 74.344C48.8111 74.7707 48.6938 75.1653 48.5658 75.528C48.4591 75.8907 48.3631 76.2 48.2778 76.456L45.6858 83.368H52.9178L50.3578 76.456ZM75.3073 93H72.4593V78.184H67.4033C67.1899 80.8933 66.9233 83.208 66.6033 85.128C66.2833 87.0267 65.8779 88.5733 65.3873 89.768C64.8966 90.9627 64.3099 91.8373 63.6273 92.392C62.9446 92.9467 62.1446 93.224 61.2273 93.224C60.9499 93.224 60.6726 93.2027 60.3953 93.16C60.1393 93.1387 59.9259 93.0853 59.7553 93V90.888C59.8833 90.9307 60.0219 90.9627 60.1713 90.984C60.3206 91.0053 60.4699 91.016 60.6193 91.016C61.0886 91.016 61.5153 90.824 61.8993 90.44C62.2833 90.056 62.6246 89.4693 62.9233 88.68C63.2433 87.8907 63.5313 86.8987 63.7873 85.704C64.0433 84.488 64.2673 83.0587 64.4593 81.416C64.6513 79.7733 64.8219 77.9173 64.9713 75.848H75.3073V93ZM83.4073 86.312C83.4073 86.504 83.3966 86.7813 83.3753 87.144C83.3753 87.4853 83.3646 87.8587 83.3433 88.264C83.3219 88.648 83.3006 89.0213 83.2793 89.384C83.2579 89.7253 83.2366 90.0027 83.2153 90.216L92.3993 75.848H95.8553V93H93.2313V82.888C93.2313 82.5467 93.2313 82.0987 93.2313 81.544C93.2526 80.9893 93.2739 80.4453 93.2953 79.912C93.3166 79.3573 93.3379 78.9413 93.3593 78.664L84.2393 93H80.7513V75.848H83.4073V86.312ZM108.194 93.32C106.679 93.32 105.324 93.0107 104.13 92.392C102.956 91.7733 102.028 90.8133 101.346 89.512C100.684 88.2107 100.354 86.5467 100.354 84.52C100.354 82.408 100.706 80.6907 101.41 79.368C102.114 78.0453 103.063 77.0747 104.258 76.456C105.474 75.8373 106.85 75.528 108.386 75.528C109.26 75.528 110.103 75.624 110.914 75.816C111.724 75.9867 112.386 76.2 112.898 76.456L112.034 78.792C111.522 78.6 110.924 78.4187 110.242 78.248C109.559 78.0773 108.919 77.992 108.322 77.992C107.17 77.992 106.22 78.2373 105.474 78.728C104.727 79.2187 104.172 79.944 103.81 80.904C103.447 81.864 103.266 83.0587 103.266 84.488C103.266 85.8533 103.447 87.016 103.81 87.976C104.172 88.936 104.716 89.6613 105.442 90.152C106.167 90.6427 107.074 90.888 108.162 90.888C109.1 90.888 109.922 90.792 110.626 90.6C111.351 90.408 112.012 90.1733 112.61 89.896V92.392C112.034 92.6907 111.394 92.9147 110.69 93.064C110.007 93.2347 109.175 93.32 108.194 93.32ZM123.185 75.56C125.275 75.56 126.822 76.0187 127.825 76.936C128.827 77.8533 129.329 79.3147 129.329 81.32V93H127.281L126.737 90.568H126.609C126.118 91.1867 125.606 91.7093 125.073 92.136C124.561 92.5413 123.963 92.84 123.281 93.032C122.619 93.224 121.809 93.32 120.849 93.32C119.825 93.32 118.897 93.1387 118.065 92.776C117.254 92.4133 116.614 91.8587 116.145 91.112C115.675 90.344 115.441 89.384 115.441 88.232C115.441 86.5253 116.113 85.2133 117.457 84.296C118.801 83.3573 120.87 82.8453 123.665 82.76L126.577 82.664V81.64C126.577 80.2107 126.267 79.2187 125.649 78.664C125.03 78.1093 124.155 77.832 123.025 77.832C122.129 77.832 121.275 77.9707 120.465 78.248C119.654 78.504 118.897 78.8027 118.193 79.144L117.329 77.032C118.075 76.6267 118.961 76.2853 119.985 76.008C121.009 75.7093 122.075 75.56 123.185 75.56ZM124.017 84.712C121.883 84.7973 120.401 85.1387 119.569 85.736C118.758 86.3333 118.353 87.176 118.353 88.264C118.353 89.224 118.641 89.928 119.217 90.376C119.814 90.824 120.571 91.048 121.489 91.048C122.939 91.048 124.145 90.6533 125.105 89.864C126.065 89.0533 126.545 87.816 126.545 86.152V84.616L124.017 84.712ZM146.914 84.776L141.474 91.208L139.49 90.024L143.97 84.552L139.49 79.08L141.474 77.928L146.914 84.36V84.776ZM140.546 84.776L135.138 91.208L133.154 90.024L137.634 84.552L133.154 79.08L135.138 77.928L140.546 84.36V84.776Z" fill="black"/>
<path d="M70 115H14.4116L11.9228 114.689C10.919 114.563 9.93414 114.317 8.98963 113.955L7.62359 113.431C6.88282 113.147 6.21009 112.71 5.64909 112.149V112.149C5.21918 111.719 4.86138 111.223 4.58948 110.679L4.1555 109.811C3.72044 108.941 3.40333 108.017 3.21255 107.063V107.063C3.07119 106.356 3 105.637 3 104.916V13.4273C3 12.8106 3.06092 12.1954 3.18187 11.5907V11.5907C3.39239 10.5381 3.78231 9.52948 4.3346 8.609L5 7.5L5.10566 7.35913C6.02488 6.13349 7.19221 5.11544 8.53146 4.37141V4.37141C10.1504 3.47199 11.9719 3 13.8239 3H14.5H158H158.676C160.528 3 162.35 3.47199 163.969 4.37141L164.651 4.75066C165.54 5.24467 166.315 5.92061 166.926 6.73439V6.73439C167.307 7.24259 167.62 7.79875 167.855 8.38856L168.09 8.97564C168.363 9.65711 168.572 10.3621 168.716 11.0818L168.741 11.2028C168.913 12.0655 169 12.9431 169 13.8229V39M169 77V106V106.512C169 107.819 168.696 109.109 168.111 110.278L167.906 110.687C167.637 111.226 167.283 111.717 166.858 112.142V112.142C166.292 112.708 165.613 113.145 164.864 113.426L163.409 113.972C162.473 114.323 161.499 114.563 160.507 114.687L158 115H102" stroke="black" stroke-width="5"/>
<path d="M70 296H14.4116L11.8897 295.702C10.9076 295.585 9.94213 295.356 9.01249 295.019L7.58235 294.5C6.86841 294.241 6.21535 293.838 5.66373 293.316V293.316C5.22421 292.9 4.8558 292.415 4.57312 291.879L4.1464 291.072C3.71755 290.26 3.40371 289.393 3.2139 288.494V288.494C3.07169 287.821 3 287.135 3 286.448V199.878C3 199.288 3.06149 198.7 3.18347 198.123V198.123C3.3928 197.132 3.77761 196.187 4.31971 195.332L5 194.259L5.0435 194.204C6.00389 192.992 7.20701 191.994 8.57567 191.275V191.275C10.168 190.437 11.94 190 13.739 190H14.5H70M169 224.071V200.251C169 199.413 168.913 198.578 168.74 197.758L168.72 197.666C168.574 196.974 168.361 196.297 168.086 195.645L167.868 195.13C167.624 194.552 167.302 194.01 166.913 193.518V193.518C166.311 192.758 165.557 192.133 164.699 191.682L163.924 191.275C162.332 190.437 160.56 190 158.761 190H158H102M169 260.036V287.482V287.92C169 289.186 168.691 290.434 168.099 291.553L167.923 291.887C167.643 292.417 167.278 292.898 166.843 293.309V293.309C166.287 293.835 165.627 294.239 164.906 294.495L163.386 295.035C162.465 295.362 161.51 295.585 160.54 295.7L158 296H102" stroke="black" stroke-width="5"/>
<path d="M57.04 241.544C57.04 243.4 56.784 245.085 56.272 246.6C55.7813 248.115 55.0453 249.395 54.064 250.44C53.0827 251.485 51.856 252.253 50.384 252.744L55.856 258.44H51.728L47.312 253.288C47.184 253.288 47.0453 253.288 46.896 253.288C46.768 253.309 46.64 253.32 46.512 253.32C44.72 253.32 43.1627 253.043 41.84 252.488C40.5173 251.912 39.4187 251.112 38.544 250.088C37.6693 249.043 37.0187 247.795 36.592 246.344C36.1653 244.893 35.952 243.283 35.952 241.512C35.952 239.165 36.336 237.117 37.104 235.368C37.872 233.619 39.0347 232.253 40.592 231.272C42.1707 230.291 44.1547 229.8 46.544 229.8C48.8267 229.8 50.7467 230.291 52.304 231.272C53.8613 232.232 55.0347 233.597 55.824 235.368C56.6347 237.117 57.04 239.176 57.04 241.544ZM38.992 241.544C38.992 243.464 39.2587 245.117 39.792 246.504C40.3253 247.891 41.1467 248.957 42.256 249.704C43.3867 250.451 44.8053 250.824 46.512 250.824C48.24 250.824 49.648 250.451 50.736 249.704C51.8453 248.957 52.6667 247.891 53.2 246.504C53.7333 245.117 54 243.464 54 241.544C54 238.664 53.4027 236.413 52.208 234.792C51.0133 233.149 49.1253 232.328 46.544 232.328C44.816 232.328 43.3867 232.701 42.256 233.448C41.1467 234.173 40.3253 235.229 39.792 236.616C39.2587 237.981 38.992 239.624 38.992 241.544ZM77.8875 230.152L69.7275 253H66.8475L58.6875 230.152H61.6955L66.8475 244.808C67.0822 245.427 67.2848 246.024 67.4555 246.6C67.6262 247.176 67.7755 247.731 67.9035 248.264C68.0528 248.776 68.1808 249.288 68.2875 249.8C68.3942 249.288 68.5115 248.765 68.6395 248.232C68.7888 247.699 68.9488 247.144 69.1195 246.568C69.3115 245.992 69.5142 245.384 69.7275 244.744L74.8475 230.152H77.8875ZM86.466 235.56C88.5567 235.56 90.1033 236.019 91.106 236.936C92.1087 237.853 92.61 239.315 92.61 241.32V253H90.562L90.018 250.568H89.89C89.3993 251.187 88.8873 251.709 88.354 252.136C87.842 252.541 87.2447 252.84 86.562 253.032C85.9007 253.224 85.09 253.32 84.13 253.32C83.106 253.32 82.178 253.139 81.346 252.776C80.5353 252.413 79.8953 251.859 79.426 251.112C78.9567 250.344 78.722 249.384 78.722 248.232C78.722 246.525 79.394 245.213 80.738 244.296C82.082 243.357 84.1513 242.845 86.946 242.76L89.858 242.664V241.64C89.858 240.211 89.5487 239.219 88.93 238.664C88.3113 238.109 87.4367 237.832 86.306 237.832C85.41 237.832 84.5567 237.971 83.746 238.248C82.9353 238.504 82.178 238.803 81.474 239.144L80.61 237.032C81.3567 236.627 82.242 236.285 83.266 236.008C84.29 235.709 85.3567 235.56 86.466 235.56ZM87.298 244.712C85.1647 244.797 83.682 245.139 82.85 245.736C82.0393 246.333 81.634 247.176 81.634 248.264C81.634 249.224 81.922 249.928 82.498 250.376C83.0953 250.824 83.8527 251.048 84.77 251.048C86.2207 251.048 87.426 250.653 88.386 249.864C89.346 249.053 89.826 247.816 89.826 246.152V244.616L87.298 244.712ZM103.988 253.32C101.854 253.32 100.148 252.584 98.8675 251.112C97.5875 249.619 96.9475 247.4 96.9475 244.456C96.9475 241.512 97.5875 239.293 98.8675 237.8C100.169 236.285 101.886 235.528 104.02 235.528C104.916 235.528 105.694 235.645 106.356 235.88C107.017 236.093 107.593 236.392 108.084 236.776C108.574 237.16 108.99 237.587 109.332 238.056H109.524C109.502 237.779 109.46 237.373 109.396 236.84C109.353 236.285 109.332 235.848 109.332 235.528V228.68H112.148V253H109.876L109.46 250.696H109.332C108.99 251.187 108.574 251.635 108.084 252.04C107.593 252.424 107.006 252.733 106.324 252.968C105.662 253.203 104.884 253.32 103.988 253.32ZM104.436 250.984C106.249 250.984 107.518 250.493 108.244 249.512C108.99 248.509 109.364 247.005 109.364 245V244.488C109.364 242.355 109.012 240.723 108.308 239.592C107.604 238.44 106.302 237.864 104.404 237.864C102.889 237.864 101.748 238.472 100.98 239.688C100.233 240.883 99.8595 242.493 99.8595 244.52C99.8595 246.568 100.233 248.157 100.98 249.288C101.748 250.419 102.9 250.984 104.436 250.984ZM134.548 253H131.796V237.032C131.796 236.413 131.796 235.891 131.796 235.464C131.817 235.037 131.838 234.643 131.86 234.28C131.881 233.896 131.902 233.501 131.924 233.096C131.582 233.437 131.273 233.725 130.996 233.96C130.718 234.195 130.366 234.493 129.94 234.856L127.508 236.84L126.036 234.952L132.212 230.152H134.548V253Z" fill="black"/>
<path d="M32.608 394.496C32.608 396.053 32.1173 397.291 31.136 398.208C30.1547 399.104 28.8427 399.68 27.2 399.936V400.064C29.12 400.32 30.5813 400.917 31.584 401.856C32.5867 402.795 33.088 404.021 33.088 405.536C33.088 406.88 32.7467 408.064 32.064 409.088C31.3813 410.091 30.3573 410.88 28.992 411.456C27.6267 412.032 25.92 412.32 23.872 412.32C22.6347 412.32 21.4507 412.224 20.32 412.032C19.2107 411.861 18.176 411.541 17.216 411.072V408.448C17.8773 408.768 18.5813 409.045 19.328 409.28C20.096 409.493 20.864 409.664 21.632 409.792C22.4 409.899 23.136 409.952 23.84 409.952C25.888 409.952 27.4347 409.568 28.48 408.8C29.5467 408.032 30.08 406.944 30.08 405.536C30.08 404.085 29.4613 403.029 28.224 402.368C26.9867 401.707 25.2587 401.376 23.04 401.376H19.776V398.976H22.88C24.3947 398.976 25.6427 398.805 26.624 398.464C27.6267 398.123 28.3733 397.643 28.864 397.024C29.376 396.384 29.632 395.637 29.632 394.784C29.632 393.632 29.2053 392.747 28.352 392.128C27.4987 391.509 26.3893 391.2 25.024 391.2C23.5947 391.2 22.4 391.381 21.44 391.744C20.5013 392.107 19.584 392.576 18.688 393.152L17.312 391.2C17.9093 390.752 18.592 390.357 19.36 390.016C20.1493 389.653 21.024 389.365 21.984 389.152C22.944 388.939 23.968 388.832 25.056 388.832C26.6987 388.832 28.0747 389.077 29.184 389.568C30.3147 390.059 31.168 390.731 31.744 391.584C32.32 392.416 32.608 393.387 32.608 394.496ZM44.0285 394.56C46.1192 394.56 47.6658 395.019 48.6685 395.936C49.6712 396.853 50.1725 398.315 50.1725 400.32V412H48.1245L47.5805 409.568H47.4525C46.9618 410.187 46.4498 410.709 45.9165 411.136C45.4045 411.541 44.8072 411.84 44.1245 412.032C43.4632 412.224 42.6525 412.32 41.6925 412.32C40.6685 412.32 39.7405 412.139 38.9085 411.776C38.0978 411.413 37.4578 410.859 36.9885 410.112C36.5192 409.344 36.2845 408.384 36.2845 407.232C36.2845 405.525 36.9565 404.213 38.3005 403.296C39.6445 402.357 41.7138 401.845 44.5085 401.76L47.4205 401.664V400.64C47.4205 399.211 47.1112 398.219 46.4925 397.664C45.8738 397.109 44.9992 396.832 43.8685 396.832C42.9725 396.832 42.1192 396.971 41.3085 397.248C40.4978 397.504 39.7405 397.803 39.0365 398.144L38.1725 396.032C38.9192 395.627 39.8045 395.285 40.8285 395.008C41.8525 394.709 42.9192 394.56 44.0285 394.56ZM44.8605 403.712C42.7272 403.797 41.2445 404.139 40.4125 404.736C39.6018 405.333 39.1965 406.176 39.1965 407.264C39.1965 408.224 39.4845 408.928 40.0605 409.376C40.6578 409.824 41.4152 410.048 42.3325 410.048C43.7832 410.048 44.9885 409.653 45.9485 408.864C46.9085 408.053 47.3885 406.816 47.3885 405.152V403.616L44.8605 403.712ZM78.702 394.848V409.664H81.198V417.92H78.382V412H55.47V394.848H58.286V409.632H65.678V394.848H68.494V409.632H75.918V394.848H78.702ZM87.126 405.312C87.126 405.504 87.1153 405.781 87.094 406.144C87.094 406.485 87.0833 406.859 87.062 407.264C87.0407 407.648 87.0193 408.021 86.998 408.384C86.9767 408.725 86.9553 409.003 86.934 409.216L96.118 394.848H99.574V412H96.95V401.888C96.95 401.547 96.95 401.099 96.95 400.544C96.9713 399.989 96.9927 399.445 97.014 398.912C97.0353 398.357 97.0567 397.941 97.078 397.664L87.958 412H84.47V394.848H87.126V405.312ZM128.265 394.848V409.664H130.761V417.92H127.945V412H105.033V394.848H107.849V409.632H115.241V394.848H118.057V409.632H125.481V394.848H128.265ZM140.529 394.56C142.619 394.56 144.166 395.019 145.169 395.936C146.171 396.853 146.673 398.315 146.673 400.32V412H144.625L144.081 409.568H143.953C143.462 410.187 142.95 410.709 142.417 411.136C141.905 411.541 141.307 411.84 140.625 412.032C139.963 412.224 139.153 412.32 138.193 412.32C137.169 412.32 136.241 412.139 135.409 411.776C134.598 411.413 133.958 410.859 133.489 410.112C133.019 409.344 132.785 408.384 132.785 407.232C132.785 405.525 133.457 404.213 134.801 403.296C136.145 402.357 138.214 401.845 141.009 401.76L143.921 401.664V400.64C143.921 399.211 143.611 398.219 142.993 397.664C142.374 397.109 141.499 396.832 140.369 396.832C139.473 396.832 138.619 396.971 137.809 397.248C136.998 397.504 136.241 397.803 135.536 398.144L134.673 396.032C135.419 395.627 136.305 395.285 137.329 395.008C138.353 394.709 139.419 394.56 140.529 394.56ZM141.361 403.712C139.227 403.797 137.745 404.139 136.913 404.736C136.102 405.333 135.697 406.176 135.697 407.264C135.697 408.224 135.985 408.928 136.561 409.376C137.158 409.824 137.915 410.048 138.833 410.048C140.283 410.048 141.489 409.653 142.449 408.864C143.409 408.053 143.889 406.816 143.889 405.152V403.616L141.361 403.712ZM158.594 394.528C160.066 394.528 161.325 394.848 162.37 395.488C163.437 396.128 164.247 397.035 164.802 398.208C165.378 399.36 165.666 400.715 165.666 402.272V403.968H153.922C153.965 405.909 154.455 407.392 155.394 408.416C156.354 409.419 157.687 409.92 159.394 409.92C160.482 409.92 161.442 409.824 162.274 409.632C163.127 409.419 164.002 409.12 164.898 408.736V411.2C164.023 411.584 163.159 411.861 162.306 412.032C161.453 412.224 160.439 412.32 159.266 412.32C157.645 412.32 156.205 411.989 154.946 411.328C153.709 410.667 152.738 409.685 152.034 408.384C151.351 407.061 151.01 405.451 151.01 403.552C151.01 401.675 151.319 400.064 151.938 398.72C152.578 397.376 153.463 396.341 154.594 395.616C155.746 394.891 157.079 394.528 158.594 394.528ZM158.562 396.832C157.218 396.832 156.151 397.269 155.362 398.144C154.594 398.997 154.135 400.192 153.986 401.728H162.722C162.722 400.747 162.573 399.893 162.274 399.168C161.975 398.443 161.517 397.877 160.898 397.472C160.301 397.045 159.522 396.832 158.562 396.832ZM188.433 394.848V412H185.905V401.056C185.905 400.608 185.915 400.139 185.937 399.648C185.979 399.157 186.022 398.677 186.065 398.208H185.969L180.369 412H178.001L172.561 398.208H172.465C172.507 398.677 172.529 399.157 172.529 399.648C172.55 400.139 172.561 400.64 172.561 401.152V412H170.033V394.848H173.777L179.185 408.64L184.689 394.848H188.433ZM200.404 394.56C202.494 394.56 204.041 395.019 205.044 395.936C206.046 396.853 206.548 398.315 206.548 400.32V412H204.5L203.956 409.568H203.828C203.337 410.187 202.825 410.709 202.292 411.136C201.78 411.541 201.182 411.84 200.5 412.032C199.838 412.224 199.028 412.32 198.068 412.32C197.044 412.32 196.116 412.139 195.284 411.776C194.473 411.413 193.833 410.859 193.364 410.112C192.894 409.344 192.66 408.384 192.66 407.232C192.66 405.525 193.332 404.213 194.676 403.296C196.02 402.357 198.089 401.845 200.884 401.76L203.796 401.664V400.64C203.796 399.211 203.486 398.219 202.868 397.664C202.249 397.109 201.374 396.832 200.244 396.832C199.348 396.832 198.494 396.971 197.684 397.248C196.873 397.504 196.116 397.803 195.411 398.144L194.548 396.032C195.294 395.627 196.18 395.285 197.204 395.008C198.228 394.709 199.294 394.56 200.404 394.56ZM201.236 403.712C199.102 403.797 197.62 404.139 196.788 404.736C195.977 405.333 195.572 406.176 195.572 407.264C195.572 408.224 195.86 408.928 196.436 409.376C197.033 409.824 197.79 410.048 198.708 410.048C200.158 410.048 201.364 409.653 202.324 408.864C203.284 408.053 203.764 406.816 203.764 405.152V403.616L201.236 403.712ZM212.901 412H209.637L214.533 404.8C213.872 404.629 213.232 404.363 212.613 404C211.994 403.616 211.493 403.093 211.109 402.432C210.725 401.749 210.533 400.907 210.533 399.904C210.533 398.261 211.088 397.013 212.197 396.16C213.306 395.285 214.778 394.848 216.613 394.848H224.293V412H221.477V405.184H217.317L212.901 412ZM213.253 399.936C213.253 400.917 213.616 401.653 214.341 402.144C215.088 402.613 216.122 402.848 217.445 402.848H221.477V397.184H216.901C215.6 397.184 214.661 397.44 214.085 397.952C213.53 398.464 213.253 399.125 213.253 399.936ZM75.9191 438.848V456H73.1031V441.248H64.2391V456H61.4231V438.848H75.9191ZM96.3039 447.392C96.3039 448.821 96.1119 450.091 95.7279 451.2C95.3652 452.288 94.8319 453.216 94.1279 453.984C93.4452 454.752 92.6025 455.339 91.5999 455.744C90.6185 456.128 89.5199 456.32 88.3039 456.32C87.1732 456.32 86.1279 456.128 85.1679 455.744C84.2079 455.339 83.3759 454.752 82.6719 453.984C81.9679 453.216 81.4132 452.288 81.0079 451.2C80.6239 450.091 80.4319 448.821 80.4319 447.392C80.4319 445.493 80.7519 443.893 81.3919 442.592C82.0319 441.269 82.9492 440.267 84.1439 439.584C85.3385 438.88 86.7572 438.528 88.3999 438.528C89.9572 438.528 91.3225 438.88 92.4959 439.584C93.6905 440.267 94.6185 441.269 95.2799 442.592C95.9625 443.893 96.3039 445.493 96.3039 447.392ZM83.3439 447.392C83.3439 448.736 83.5145 449.909 83.8559 450.912C84.2185 451.893 84.7732 452.651 85.5199 453.184C86.2665 453.717 87.2159 453.984 88.3679 453.984C89.5199 453.984 90.4692 453.717 91.2159 453.184C91.9625 452.651 92.5065 451.893 92.8479 450.912C93.2105 449.909 93.3919 448.736 93.3919 447.392C93.3919 446.027 93.2105 444.864 92.8479 443.904C92.4852 442.944 91.9305 442.208 91.1839 441.696C90.4585 441.163 89.5092 440.896 88.3359 440.896C86.5865 440.896 85.3172 441.472 84.5279 442.624C83.7385 443.776 83.3439 445.365 83.3439 447.392ZM113.503 438.848V453.632H115.999V461.952H113.279V456H101.343V461.952H98.6549V453.632H100.031C101.012 452.267 101.823 450.784 102.463 449.184C103.124 447.563 103.615 445.877 103.935 444.128C104.276 442.357 104.458 440.597 104.479 438.848H113.503ZM106.975 441.056C106.89 442.507 106.666 444.011 106.303 445.568C105.94 447.104 105.471 448.576 104.895 449.984C104.34 451.392 103.69 452.608 102.943 453.632H110.783V441.056H106.975ZM126.241 456.32C124.726 456.32 123.371 456.011 122.177 455.392C121.003 454.773 120.075 453.813 119.393 452.512C118.731 451.211 118.401 449.547 118.401 447.52C118.401 445.408 118.753 443.691 119.457 442.368C120.161 441.045 121.11 440.075 122.305 439.456C123.521 438.837 124.897 438.528 126.433 438.528C127.307 438.528 128.15 438.624 128.961 438.816C129.771 438.987 130.433 439.2 130.945 439.456L130.081 441.792C129.569 441.6 128.971 441.419 128.289 441.248C127.606 441.077 126.966 440.992 126.369 440.992C125.217 440.992 124.267 441.237 123.521 441.728C122.774 442.219 122.219 442.944 121.857 443.904C121.494 444.864 121.313 446.059 121.313 447.488C121.313 448.853 121.494 450.016 121.857 450.976C122.219 451.936 122.763 452.661 123.489 453.152C124.214 453.643 125.121 453.888 126.209 453.888C127.147 453.888 127.969 453.792 128.673 453.6C129.398 453.408 130.059 453.173 130.657 452.896V455.392C130.081 455.691 129.441 455.915 128.737 456.064C128.054 456.235 127.222 456.32 126.241 456.32ZM141.36 438.528C142.832 438.528 144.09 438.848 145.136 439.488C146.202 440.128 147.013 441.035 147.568 442.208C148.144 443.36 148.432 444.715 148.432 446.272V447.968H136.688C136.73 449.909 137.221 451.392 138.16 452.416C139.12 453.419 140.453 453.92 142.16 453.92C143.248 453.92 144.208 453.824 145.04 453.632C145.893 453.419 146.768 453.12 147.664 452.736V455.2C146.789 455.584 145.925 455.861 145.072 456.032C144.218 456.224 143.205 456.32 142.032 456.32C140.41 456.32 138.97 455.989 137.712 455.328C136.474 454.667 135.504 453.685 134.8 452.384C134.117 451.061 133.776 449.451 133.776 447.552C133.776 445.675 134.085 444.064 134.704 442.72C135.344 441.376 136.229 440.341 137.36 439.616C138.512 438.891 139.845 438.528 141.36 438.528ZM141.328 440.832C139.984 440.832 138.917 441.269 138.128 442.144C137.36 442.997 136.901 444.192 136.752 445.728H145.488C145.488 444.747 145.338 443.893 145.04 443.168C144.741 442.443 144.282 441.877 143.664 441.472C143.066 441.045 142.288 440.832 141.328 440.832ZM164.638 441.216H159.038V456H156.254V441.216H150.718V438.848H164.638V441.216ZM175.921 445.888C177.414 445.888 178.652 446.069 179.633 446.432C180.614 446.795 181.35 447.339 181.841 448.064C182.353 448.768 182.609 449.664 182.609 450.752C182.609 451.819 182.364 452.747 181.873 453.536C181.404 454.325 180.668 454.933 179.665 455.36C178.662 455.787 177.372 456 175.793 456H168.017V438.848H170.833V445.888H175.921ZM179.793 450.912C179.793 449.867 179.42 449.163 178.673 448.8C177.948 448.416 176.924 448.224 175.601 448.224H170.833V453.728H175.665C176.86 453.728 177.841 453.515 178.609 453.088C179.398 452.661 179.793 451.936 179.793 450.912Z" fill="black"/>
<path d="M70 367H20.3494H15.3735L13.7204 367.189C11.9325 367.393 10.219 368.021 8.72171 369.019L8.51601 369.156C7.19016 370.04 6.08787 371.22 5.29614 372.603L5.24854 372.686C4.89124 373.31 4.60638 373.973 4.39947 374.661V374.661C4.13458 375.543 4 376.459 4 377.379V463.379C4 464.111 4.10693 464.838 4.3174 465.539V465.539C4.57756 466.405 4.99203 467.216 5.54084 467.935L5.95095 468.472C6.96643 469.801 8.30797 470.846 9.8457 471.505V471.505C10.612 471.834 11.4175 472.062 12.2421 472.185L14.537 472.527L20.2237 473H144.747H224.361L230.048 472.527L232.663 472.178C233.548 472.06 234.408 471.796 235.207 471.397V471.397C236.384 470.808 237.4 469.94 238.165 468.868L238.476 468.434C239.151 467.489 239.617 466.411 239.843 465.271V465.271C239.948 464.747 240 464.213 240 463.677V437.036V377.13C240 376.375 239.89 375.624 239.672 374.9V374.9C239.419 374.056 239.023 373.262 238.502 372.551L237.766 371.546C237.257 370.851 236.666 370.221 236.004 369.67V369.67C234.688 368.573 233.125 367.812 231.449 367.453L230.74 367.301C229.807 367.101 228.857 367 227.903 367H224.361H102" stroke="black" stroke-width="5"/>
<path d="M541 318.224L538.755 315.469L535.5 311.474M541 318.224V322.633V332.831M541 318.224L519 346.327M541 332.831V340.265V345.776L530.224 359L524.809 352.354M541 332.831L524.809 352.354M524.809 352.354L520.347 346.878L519.449 345.776V338.061V333.102M519.449 333.102V328.143V318.224L530.224 305L534.643 310.423L535.5 311.474M519.449 333.102L535.5 311.474" stroke="black" stroke-width="4"/>
<path d="M97 318.224L94.7551 315.469L91.5 311.474M97 318.224V322.633V332.831M97 318.224L75 346.327M97 332.831V340.265V345.776L86.2245 359L80.8091 352.354M97 332.831L80.8091 352.354M80.8091 352.354L76.3469 346.878L75.449 345.776V338.061V333.102M75.449 333.102V328.143V318.224L86.2245 305L90.6434 310.423L91.5 311.474M75.449 333.102L91.5 311.474" stroke="black" stroke-width="4"/>
<path d="M201 229H188L176 242L188 255H201M201 229L188 242L201 255M201 229H213M201 255H213M213 255L200 242L213 229M213 255H401M213 229H401M413 229H426L438 242L426 255H413M413 229L426 242L413 255M413 229H401M413 255H401M401 255L414 242L401 229" stroke="black" stroke-width="4"/>
<path d="M515.612 135.918L530.306 120L536.332 126.528L537.5 127.793L541.939 132.602L545 135.918V141.224V153.5V162.449V169.082L530.306 185L522.922 177L516.837 170.408L515.612 169.082V169.055V159.796V153.827V147.857V135.918Z" fill="black"/>
<path d="M545 135.918L541.939 132.602L537.5 127.793M545 135.918V141.224V153.5M545 135.918L515 169.745M545 153.5V162.449V169.082L530.306 185L522.922 177M545 153.5L522.922 177M522.922 177L516.837 170.408L515.612 169.082V159.796V153.827M515.612 153.827V147.857V135.918L530.306 120L536.332 126.528L537.5 127.793M515.612 153.827L537.5 127.793" stroke="white" stroke-width="4"/>
<path d="M71.6122 135.918L86.3061 120L92.3319 126.528L93.5 127.793L97.9388 132.602L101 135.918V141.224V153.5V162.449V169.082L86.3061 185L78.9215 177L72.8367 170.408L71.6122 169.082V169.055V159.796V153.827V147.857V135.918Z" fill="black"/>
<path d="M101 135.918L97.9388 132.602L93.5 127.793M101 135.918V141.224V153.5M101 135.918L71 169.745M101 153.5V162.449V169.082L86.3061 185L78.9215 177M101 153.5L78.9215 177M78.9215 177L72.8367 170.408L71.6122 169.082V159.796V153.827M71.6122 153.827V147.857V135.918L86.3061 120L92.3319 126.528L93.5 127.793M71.6122 153.827L93.5 127.793" stroke="white" stroke-width="4"/>
</svg>
