<svg width="941" height="258" viewBox="0 0 941 258" fill="none" xmlns="http://www.w3.org/2000/svg">
<circle cx="285.5" cy="43.1062" r="42.5" fill="#D9D9D9"/>
<path d="M277.96 53.6062H275.006L283.551 30.3335H286.46L295.006 53.6062H292.051L285.097 34.0153H284.915L277.96 53.6062ZM279.051 44.5153H290.96V47.0153H279.051V44.5153Z" fill="black"/>
<circle cx="655.5" cy="43.1062" r="42.5" fill="#D9D9D9"/>
<path d="M647.912 54.6062V31.3335H656.048C657.67 31.3335 659.007 31.6138 660.06 32.1744C661.113 32.7274 661.897 33.4736 662.412 34.413C662.927 35.3448 663.185 36.3789 663.185 37.5153C663.185 38.5153 663.007 39.341 662.651 39.9926C662.302 40.6441 661.84 41.1592 661.264 41.538C660.696 41.9168 660.079 42.1971 659.412 42.3789V42.6062C660.124 42.6517 660.84 42.9017 661.56 43.3562C662.279 43.8107 662.882 44.4623 663.366 45.3107C663.851 46.1592 664.094 47.1971 664.094 48.4244C664.094 49.591 663.829 50.6403 663.298 51.5721C662.768 52.5039 661.931 53.2426 660.787 53.788C659.643 54.3335 658.154 54.6062 656.321 54.6062H647.912ZM650.73 52.1062H656.321C658.162 52.1062 659.469 51.7501 660.241 51.038C661.022 50.3183 661.412 49.4471 661.412 48.4244C661.412 47.6365 661.211 46.9092 660.81 46.2426C660.408 45.5683 659.836 45.0304 659.094 44.6289C658.351 44.2198 657.473 44.0153 656.457 44.0153H650.73V52.1062ZM650.73 41.5607H655.957C656.806 41.5607 657.571 41.3941 658.253 41.0607C658.942 40.7274 659.488 40.2577 659.889 39.6517C660.298 39.0456 660.503 38.3335 660.503 37.5153C660.503 36.4926 660.147 35.6251 659.435 34.913C658.723 34.1933 657.594 33.8335 656.048 33.8335H650.73V41.5607Z" fill="black"/>
<rect x="389" y="11.6062" width="163" height="61" rx="30.5" fill="#D9D9D9"/>
<path d="M428.628 53.6062V33.2426H440.838V35.4301H431.094V42.3107H439.923V44.4982H431.094V53.6062H428.628ZM453.493 42.3306V44.5181H444.584V42.3306H453.493ZM475.122 43.4244C475.122 45.5721 474.735 47.4282 473.959 48.9926C473.183 50.557 472.119 51.7634 470.767 52.6119C469.415 53.4604 467.87 53.8846 466.134 53.8846C464.397 53.8846 462.852 53.4604 461.5 52.6119C460.148 51.7634 459.084 50.557 458.308 48.9926C457.533 47.4282 457.145 45.5721 457.145 43.4244C457.145 41.2767 457.533 39.4206 458.308 37.8562C459.084 36.2918 460.148 35.0854 461.5 34.2369C462.852 33.3884 464.397 32.9642 466.134 32.9642C467.87 32.9642 469.415 33.3884 470.767 34.2369C472.119 35.0854 473.183 36.2918 473.959 37.8562C474.735 39.4206 475.122 41.2767 475.122 43.4244ZM472.736 43.4244C472.736 41.6611 472.441 40.173 471.851 38.9599C471.268 37.7468 470.476 36.8287 469.475 36.2056C468.48 35.5825 467.367 35.271 466.134 35.271C464.901 35.271 463.784 35.5825 462.783 36.2056C461.789 36.8287 460.996 37.7468 460.406 38.9599C459.823 40.173 459.531 41.6611 459.531 43.4244C459.531 45.1876 459.823 46.6758 460.406 47.8889C460.996 49.1019 461.789 50.02 462.783 50.6431C463.784 51.2662 464.901 51.5778 466.134 51.5778C467.367 51.5778 468.48 51.2662 469.475 50.6431C470.476 50.02 471.268 49.1019 471.851 47.8889C472.441 46.6758 472.736 45.1876 472.736 43.4244ZM493.03 53.9244C491.598 53.9244 490.365 53.5863 489.331 52.9102C488.297 52.234 487.502 51.3027 486.945 50.1161C486.388 48.9296 486.11 47.574 486.11 46.0494C486.11 44.4982 486.395 43.1294 486.965 41.9428C487.541 40.7497 488.343 39.8183 489.371 39.1488C490.405 38.4727 491.611 38.1346 492.99 38.1346C494.064 38.1346 495.032 38.3335 495.894 38.7312C496.755 39.1289 497.461 39.6857 498.012 40.4017C498.562 41.1176 498.903 41.9528 499.036 42.9073H496.689C496.51 42.2113 496.112 41.5948 495.496 41.0579C494.886 40.5143 494.064 40.2426 493.03 40.2426C492.115 40.2426 491.313 40.4812 490.624 40.9585C489.941 41.4291 489.407 42.0953 489.023 42.9571C488.645 43.8122 488.456 44.8164 488.456 45.9698C488.456 47.1498 488.642 48.1772 489.013 49.0522C489.391 49.9272 489.921 50.6067 490.604 51.0906C491.293 51.5745 492.102 51.8164 493.03 51.8164C493.64 51.8164 494.193 51.7104 494.691 51.4982C495.188 51.2861 495.609 50.9812 495.953 50.5835C496.298 50.1857 496.543 49.7085 496.689 49.1517H499.036C498.903 50.0532 498.575 50.8652 498.051 51.5877C497.534 52.3036 496.848 52.8737 495.993 53.298C495.145 53.7156 494.157 53.9244 493.03 53.9244ZM512.688 33.2426V53.6062H510.341V33.2426H512.688Z" fill="black"/>
<rect x="61" y="11.6062" width="121" height="61" rx="30.5" fill="#D9D9D9"/>
<path d="M90.6642 41.4187V50.6062H88.3176V30.2426H90.6642V37.7198H90.8631C91.2211 36.931 91.758 36.3046 92.4739 35.8406C93.1964 35.3699 94.1576 35.1346 95.3574 35.1346C96.3981 35.1346 97.3096 35.3434 98.0918 35.761C98.874 36.172 99.4805 36.8051 99.9114 37.6602C100.349 38.5087 100.568 39.5892 100.568 40.9017V50.6062H98.2211V41.0607C98.2211 39.8477 97.9062 38.9097 97.2765 38.2468C96.6533 37.5773 95.7883 37.2426 94.6813 37.2426C93.9123 37.2426 93.223 37.405 92.6131 37.7298C92.0099 38.0546 91.5326 38.5285 91.1813 39.1517C90.8366 39.7748 90.6642 40.5304 90.6642 41.4187ZM113.611 40.7823V42.9698H104.702V40.7823H113.611ZM128.558 38.7539L126.45 39.3505C126.317 38.9992 126.122 38.6578 125.863 38.3264C125.611 37.9883 125.267 37.7099 124.829 37.4911C124.392 37.2724 123.831 37.163 123.149 37.163C122.214 37.163 121.435 37.3785 120.812 37.8093C120.195 38.2336 119.887 38.7738 119.887 39.4301C119.887 40.0134 120.099 40.4741 120.524 40.8122C120.948 41.1502 121.611 41.432 122.512 41.6573L124.779 42.2142C126.145 42.5456 127.162 43.0527 127.832 43.7355C128.501 44.4116 128.836 45.2833 128.836 46.3505C128.836 47.2255 128.584 48.0077 128.08 48.6971C127.583 49.3865 126.887 49.9301 125.992 50.3278C125.097 50.7255 124.057 50.9244 122.87 50.9244C121.312 50.9244 120.023 50.5863 119.002 49.9102C117.981 49.234 117.335 48.2464 117.063 46.9471L119.291 46.3903C119.503 47.2123 119.904 47.8287 120.494 48.2397C121.09 48.6507 121.869 48.8562 122.83 48.8562C123.924 48.8562 124.793 48.6242 125.436 48.1602C126.085 47.6895 126.41 47.1261 126.41 46.4698C126.41 45.9395 126.224 45.4954 125.853 45.1375C125.482 44.7729 124.912 44.5011 124.143 44.3221L121.597 43.7255C120.199 43.3941 119.171 42.8803 118.515 42.1843C117.865 41.4817 117.541 40.6034 117.541 39.5494C117.541 38.6876 117.783 37.9253 118.267 37.2625C118.757 36.5996 119.423 36.0792 120.265 35.7014C121.114 35.3235 122.075 35.1346 123.149 35.1346C124.66 35.1346 125.847 35.466 126.708 36.1289C127.577 36.7918 128.193 37.6668 128.558 38.7539ZM140.562 50.6062V30.2426H152.851V32.4301H143.028V39.3107H152.215V41.4982H143.028V48.4187H153.01V50.6062H140.562Z" fill="black"/>
<circle cx="30.5" cy="116.106" r="30.5" fill="#D9D9D9"/>
<path d="M35.6023 111.333C35.483 110.326 34.9991 109.544 34.1506 108.987C33.3021 108.43 32.2614 108.152 31.0284 108.152C30.1269 108.152 29.3381 108.297 28.6619 108.589C27.9924 108.881 27.4688 109.282 27.0909 109.792C26.7197 110.303 26.5341 110.883 26.5341 111.532C26.5341 112.076 26.6634 112.543 26.9219 112.934C27.187 113.319 27.5251 113.64 27.9361 113.899C28.3471 114.151 28.7779 114.36 29.2287 114.525C29.6795 114.684 30.0938 114.814 30.4716 114.913L32.5398 115.47C33.0701 115.609 33.66 115.801 34.3097 116.047C34.9659 116.292 35.5923 116.627 36.1889 117.051C36.7921 117.468 37.2893 118.005 37.6804 118.662C38.0715 119.318 38.267 120.123 38.267 121.078C38.267 122.178 37.9787 123.172 37.402 124.061C36.8319 124.949 35.9967 125.655 34.8963 126.179C33.8026 126.702 32.4735 126.964 30.9091 126.964C29.4508 126.964 28.188 126.729 27.1207 126.258C26.0601 125.788 25.2249 125.131 24.6151 124.289C24.0118 123.448 23.6705 122.47 23.5909 121.356H26.1364C26.2027 122.125 26.4612 122.762 26.9119 123.265C27.3693 123.762 27.946 124.134 28.642 124.379C29.3447 124.618 30.1004 124.737 30.9091 124.737C31.8504 124.737 32.6955 124.584 33.4446 124.279C34.1937 123.968 34.7869 123.537 35.2244 122.987C35.6619 122.43 35.8807 121.78 35.8807 121.038C35.8807 120.362 35.6918 119.812 35.3139 119.387C34.9361 118.963 34.4389 118.619 33.8224 118.353C33.206 118.088 32.5398 117.856 31.8239 117.657L29.3182 116.941C27.7273 116.484 26.4678 115.831 25.5398 114.983C24.6117 114.134 24.1477 113.024 24.1477 111.652C24.1477 110.512 24.456 109.517 25.0724 108.669C25.6955 107.814 26.5308 107.151 27.5781 106.68C28.6321 106.203 29.8087 105.964 31.108 105.964C32.4205 105.964 33.5871 106.199 34.608 106.67C35.6288 107.134 36.4375 107.77 37.0341 108.579C37.6373 109.388 37.9555 110.306 37.9886 111.333H35.6023Z" fill="black"/>
<circle cx="30.5" cy="227.106" r="30.5" fill="#D9D9D9"/>
<path d="M13.4659 237.606V217.243H20.3466C21.9441 217.243 23.25 217.531 24.2642 218.108C25.285 218.678 26.0407 219.45 26.5312 220.424C27.0218 221.399 27.267 222.486 27.267 223.686C27.267 224.886 27.0218 225.976 26.5312 226.957C26.0473 227.938 25.2983 228.72 24.2841 229.304C23.2699 229.88 21.9706 230.169 20.3864 230.169H15.4545V227.981H20.3068C21.4006 227.981 22.2789 227.792 22.9418 227.414C23.6046 227.037 24.0852 226.526 24.3835 225.883C24.6884 225.234 24.8409 224.501 24.8409 223.686C24.8409 222.87 24.6884 222.141 24.3835 221.498C24.0852 220.855 23.6013 220.351 22.9318 219.987C22.2623 219.616 21.3741 219.43 20.267 219.43H15.9318V237.606H13.4659ZM47.6257 223.606H45.1598C45.014 222.897 44.7588 222.274 44.3942 221.737C44.0362 221.2 43.5987 220.749 43.0817 220.385C42.5713 220.013 42.0045 219.735 41.3814 219.549C40.7583 219.364 40.1087 219.271 39.4325 219.271C38.1996 219.271 37.0826 219.583 36.0817 220.206C35.0874 220.829 34.2952 221.747 33.7053 222.96C33.1219 224.173 32.8303 225.661 32.8303 227.424C32.8303 229.188 33.1219 230.676 33.7053 231.889C34.2952 233.102 35.0874 234.02 36.0817 234.643C37.0826 235.266 38.1996 235.578 39.4325 235.578C40.1087 235.578 40.7583 235.485 41.3814 235.299C42.0045 235.114 42.5713 234.839 43.0817 234.474C43.5987 234.103 44.0362 233.649 44.3942 233.112C44.7588 232.568 45.014 231.945 45.1598 231.243H47.6257C47.4401 232.283 47.102 233.215 46.6115 234.037C46.121 234.859 45.5111 235.558 44.782 236.135C44.0528 236.705 43.2341 237.139 42.326 237.437C41.4245 237.735 40.46 237.885 39.4325 237.885C37.6958 237.885 36.1513 237.46 34.799 236.612C33.4467 235.763 32.3828 234.557 31.6072 232.993C30.8317 231.428 30.4439 229.572 30.4439 227.424C30.4439 225.277 30.8317 223.421 31.6072 221.856C32.3828 220.292 33.4467 219.085 34.799 218.237C36.1513 217.388 37.6958 216.964 39.4325 216.964C40.46 216.964 41.4245 217.113 42.326 217.412C43.2341 217.71 44.0528 218.147 44.782 218.724C45.5111 219.294 46.121 219.99 46.6115 220.812C47.102 221.628 47.4401 222.559 47.6257 223.606Z" fill="black"/>
<rect x="759" y="12.6062" width="121" height="61" rx="30.5" fill="#D9D9D9"/>
<path d="M788.664 42.4187V51.6062H786.318V31.2426H788.664V38.7198H788.863C789.221 37.931 789.758 37.3046 790.474 36.8406C791.196 36.3699 792.158 36.1346 793.357 36.1346C794.398 36.1346 795.31 36.3434 796.092 36.761C796.874 37.172 797.481 37.8051 797.911 38.6602C798.349 39.5087 798.568 40.5892 798.568 41.9017V51.6062H796.221V42.0607C796.221 40.8477 795.906 39.9097 795.276 39.2468C794.653 38.5773 793.788 38.2426 792.681 38.2426C791.912 38.2426 791.223 38.405 790.613 38.7298C790.01 39.0546 789.533 39.5285 789.181 40.1517C788.837 40.7748 788.664 41.5304 788.664 42.4187ZM811.611 41.7823V43.9698H802.702V41.7823H811.611ZM826.558 39.7539L824.45 40.3505C824.317 39.9992 824.122 39.6578 823.863 39.3264C823.611 38.9883 823.267 38.7099 822.829 38.4911C822.392 38.2724 821.831 38.163 821.149 38.163C820.214 38.163 819.435 38.3785 818.812 38.8093C818.195 39.2336 817.887 39.7738 817.887 40.4301C817.887 41.0134 818.099 41.4741 818.524 41.8122C818.948 42.1502 819.611 42.432 820.512 42.6573L822.779 43.2142C824.145 43.5456 825.162 44.0527 825.832 44.7355C826.501 45.4116 826.836 46.2833 826.836 47.3505C826.836 48.2255 826.584 49.0077 826.08 49.6971C825.583 50.3865 824.887 50.9301 823.992 51.3278C823.097 51.7255 822.057 51.9244 820.87 51.9244C819.312 51.9244 818.023 51.5863 817.002 50.9102C815.981 50.234 815.335 49.2464 815.063 47.9471L817.291 47.3903C817.503 48.2123 817.904 48.8287 818.494 49.2397C819.09 49.6507 819.869 49.8562 820.83 49.8562C821.924 49.8562 822.793 49.6242 823.436 49.1602C824.085 48.6895 824.41 48.1261 824.41 47.4698C824.41 46.9395 824.224 46.4954 823.853 46.1375C823.482 45.7729 822.912 45.5011 822.143 45.3221L819.597 44.7255C818.199 44.3941 817.171 43.8803 816.515 43.1843C815.865 42.4817 815.541 41.6034 815.541 40.5494C815.541 39.6876 815.783 38.9253 816.267 38.2625C816.757 37.5996 817.423 37.0792 818.265 36.7014C819.114 36.3235 820.075 36.1346 821.149 36.1346C822.66 36.1346 823.847 36.466 824.708 37.1289C825.577 37.7918 826.193 38.6668 826.558 39.7539ZM838.562 51.6062V31.2426H850.851V33.4301H841.028V40.3107H850.215V42.4982H841.028V49.4187H851.01V51.6062H838.562Z" fill="black"/>
<circle cx="910.5" cy="116.106" r="30.5" fill="#D9D9D9"/>
<path d="M915.602 111.333C915.483 110.326 914.999 109.544 914.151 108.987C913.302 108.43 912.261 108.152 911.028 108.152C910.127 108.152 909.338 108.297 908.662 108.589C907.992 108.881 907.469 109.282 907.091 109.792C906.72 110.303 906.534 110.883 906.534 111.532C906.534 112.076 906.663 112.543 906.922 112.934C907.187 113.319 907.525 113.64 907.936 113.899C908.347 114.151 908.778 114.36 909.229 114.525C909.679 114.684 910.094 114.814 910.472 114.913L912.54 115.47C913.07 115.609 913.66 115.801 914.31 116.047C914.966 116.292 915.592 116.627 916.189 117.051C916.792 117.468 917.289 118.005 917.68 118.662C918.071 119.318 918.267 120.123 918.267 121.078C918.267 122.178 917.979 123.172 917.402 124.061C916.832 124.949 915.997 125.655 914.896 126.179C913.803 126.702 912.473 126.964 910.909 126.964C909.451 126.964 908.188 126.729 907.121 126.258C906.06 125.788 905.225 125.131 904.615 124.289C904.012 123.448 903.67 122.47 903.591 121.356H906.136C906.203 122.125 906.461 122.762 906.912 123.265C907.369 123.762 907.946 124.134 908.642 124.379C909.345 124.618 910.1 124.737 910.909 124.737C911.85 124.737 912.696 124.584 913.445 124.279C914.194 123.968 914.787 123.537 915.224 122.987C915.662 122.43 915.881 121.78 915.881 121.038C915.881 120.362 915.692 119.812 915.314 119.387C914.936 118.963 914.439 118.619 913.822 118.353C913.206 118.088 912.54 117.856 911.824 117.657L909.318 116.941C907.727 116.484 906.468 115.831 905.54 114.983C904.612 114.134 904.148 113.024 904.148 111.652C904.148 110.512 904.456 109.517 905.072 108.669C905.696 107.814 906.531 107.151 907.578 106.68C908.632 106.203 909.809 105.964 911.108 105.964C912.42 105.964 913.587 106.199 914.608 106.67C915.629 107.134 916.438 107.77 917.034 108.579C917.637 109.388 917.955 110.306 917.989 111.333H915.602Z" fill="black"/>
<circle cx="910.5" cy="227.106" r="30.5" fill="#D9D9D9"/>
<path d="M890.932 217.243V237.606H888.466V217.243H890.932ZM895.876 237.606V217.243H902.757C904.354 217.243 905.66 217.531 906.674 218.108C907.695 218.678 908.451 219.45 908.941 220.424C909.432 221.399 909.677 222.486 909.677 223.686C909.677 224.886 909.432 225.976 908.941 226.957C908.458 227.938 907.708 228.72 906.694 229.304C905.68 229.88 904.381 230.169 902.797 230.169H897.865V227.981H902.717C903.811 227.981 904.689 227.792 905.352 227.414C906.015 227.037 906.495 226.526 906.794 225.883C907.099 225.234 907.251 224.501 907.251 223.686C907.251 222.87 907.099 222.141 906.794 221.498C906.495 220.855 906.011 220.351 905.342 219.987C904.672 219.616 903.784 219.43 902.677 219.43H898.342V237.606H895.876ZM927.411 237.924C925.979 237.924 924.746 237.586 923.712 236.91C922.678 236.234 921.882 235.303 921.326 234.116C920.769 232.93 920.49 231.574 920.49 230.049C920.49 228.498 920.775 227.129 921.346 225.943C921.922 224.75 922.724 223.818 923.752 223.149C924.786 222.473 925.992 222.135 927.371 222.135C928.445 222.135 929.413 222.333 930.275 222.731C931.136 223.129 931.842 223.686 932.392 224.402C932.943 225.118 933.284 225.953 933.417 226.907H931.07C930.891 226.211 930.493 225.595 929.877 225.058C929.267 224.514 928.445 224.243 927.411 224.243C926.496 224.243 925.694 224.481 925.005 224.958C924.322 225.429 923.788 226.095 923.404 226.957C923.026 227.812 922.837 228.816 922.837 229.97C922.837 231.15 923.023 232.177 923.394 233.052C923.772 233.927 924.302 234.607 924.985 235.091C925.674 235.574 926.483 235.816 927.411 235.816C928.021 235.816 928.574 235.71 929.071 235.498C929.569 235.286 929.989 234.981 930.334 234.583C930.679 234.186 930.924 233.708 931.07 233.152H933.417C933.284 234.053 932.956 234.865 932.432 235.588C931.915 236.304 931.229 236.874 930.374 237.298C929.525 237.716 928.538 237.924 927.411 237.924Z" fill="black"/>
<line x1="182" y1="43.1062" x2="243" y2="43.1062" stroke="#1300EF"/>
<line x1="698" y1="43.1062" x2="759" y2="43.1062" stroke="#1300EF"/>
<line x1="552" y1="43.1062" x2="613" y2="43.1062" stroke="#1300EF"/>
<line x1="328" y1="43.1062" x2="389" y2="43.1062" stroke="#1300EF"/>
<line x1="30.5" y1="85.6062" x2="30.5" y2="42.6062" stroke="#1300EF"/>
<line x1="31" y1="43.1062" x2="61" y2="43.1062" stroke="#1300EF"/>
<line x1="32.5" y1="85.6062" x2="32.5" y2="45.6062" stroke="#1300EF"/>
<line x1="32" y1="45.1062" x2="61" y2="45.1062" stroke="#1300EF"/>
<line x1="30.5" y1="196.606" x2="30.5" y2="146.606" stroke="#1300EF"/>
<line x1="32.5" y1="196.606" x2="32.5" y2="146.606" stroke="#1300EF"/>
<line x1="909.5" y1="196.606" x2="909.5" y2="146.606" stroke="#1300EF"/>
<line x1="911.5" y1="196.606" x2="911.5" y2="146.606" stroke="#1300EF"/>
<line y1="-0.5" x2="43" y2="-0.5" transform="matrix(0 -1 -1 0 910 85.6062)" stroke="#1300EF"/>
<line y1="-0.5" x2="30" y2="-0.5" transform="matrix(-1 0 0 1 910 43.6062)" stroke="#1300EF"/>
<line y1="-0.5" x2="40" y2="-0.5" transform="matrix(0 -1 -1 0 908 85.6062)" stroke="#1300EF"/>
<line y1="-0.5" x2="29" y2="-0.5" transform="matrix(-1 0 0 1 909 45.6062)" stroke="#1300EF"/>
<line x1="121" y1="103.106" x2="820" y2="103.106" stroke="#1300EF"/>
<line x1="121.5" y1="102.606" x2="121.5" y2="72.6062" stroke="#1300EF"/>
<line x1="819.5" y1="103.606" x2="819.5" y2="73.6062" stroke="#1300EF"/>
<line x1="119.5" y1="105.606" x2="119.5" y2="72.6062" stroke="#1300EF"/>
<line x1="821.5" y1="105.606" x2="821.5" y2="73.6062" stroke="#1300EF"/>
<line x1="120" y1="105.106" x2="821" y2="105.106" stroke="#1300EF"/>
</svg>
